G04 Layer: DrillDrawingLayer*
G04 EasyEDA Pro v3.2.148, 2026-07-02 21:29:31*
G04 Gerber Generator version 0.3*
G04 Scale: 100 percent, Rotated: No, Reflected: No*
G04 Dimensions in millimeters*
G04 Leading zeros omitted, absolute positions, 4 integers and 5 decimals*
G04 Generated by one-click*
G04 Object Configs: Pad,Via,Track,Text,Image,Dimension,BoardOutline,BoardCutout,CopperFilled,SolidRegion,FPCStiffener,Line,PlaneZone,ComponentProperty,ComponentSilkscreen,TearDrop*
G04 Layer Configs: 1,2,3,4,5,6,7,8,9,10,11,13,14,56*
G04 Copper Areas: 0*
%FSLAX45Y45*%
%MOMM*%
%AMIconRect*4,1,4,0.28,-0.28,-0.28,-0.28,-0.28,0.28,0.28,0.28,0.28,-0.28,0*4,0,4,0.233333,-0.233333,0.233333,0.233333,-0.233333,0.233333,-0.233333,-0.233333,0.233333,-0.233333,0*%
%ADD10IconRect*%
%ADD11C,0.616X0.522667*%
%ADD12C,0.2032*%
%ADD13C,0.254*%
G75*


G04 Drill Drawing Start*
G54D10*
G01X5447489Y-2767105D03*
G54D11*
G01X5816600Y-2781300D03*
G04 Drill Drawing End*

G04 Text Start*
G54D12*
G01X10491946Y-247106D02*
G01X10491946Y-367248D01*
G01X10491946Y-247106D02*
G01X10537666Y-367248D01*
G01X10583386Y-247106D02*
G01X10537666Y-367248D01*
G01X10583386Y-247106D02*
G01X10583386Y-367248D01*
G01X10699718Y-287238D02*
G01X10699718Y-367248D01*
G01X10699718Y-304256D02*
G01X10688288Y-292826D01*
G01X10676858Y-287238D01*
G01X10659840Y-287238D01*
G01X10648410Y-292826D01*
G01X10636980Y-304256D01*
G01X10631138Y-321528D01*
G01X10631138Y-332958D01*
G01X10636980Y-349976D01*
G01X10648410Y-361406D01*
G01X10659840Y-367248D01*
G01X10676858Y-367248D01*
G01X10688288Y-361406D01*
G01X10699718Y-349976D01*
G01X10747470Y-287238D02*
G01X10747470Y-367248D01*
G01X10747470Y-321528D02*
G01X10753312Y-304256D01*
G01X10764742Y-292826D01*
G01X10776172Y-287238D01*
G01X10793190Y-287238D01*
G01X10840942Y-247106D02*
G01X10840942Y-367248D01*
G01X10898092Y-287238D02*
G01X10840942Y-344388D01*
G01X10863802Y-321528D02*
G01X10903934Y-367248D01*
G01X12029226Y-275808D02*
G01X12023384Y-264378D01*
G01X12011954Y-252948D01*
G01X12000524Y-247106D01*
G01X11977664Y-247106D01*
G01X11966234Y-252948D01*
G01X11954804Y-264378D01*
G01X11949216Y-275808D01*
G01X11943374Y-292826D01*
G01X11943374Y-321528D01*
G01X11949216Y-338546D01*
G01X11954804Y-349976D01*
G01X11966234Y-361406D01*
G01X11977664Y-367248D01*
G01X12000524Y-367248D01*
G01X12011954Y-361406D01*
G01X12023384Y-349976D01*
G01X12029226Y-338546D01*
G01X12105680Y-287238D02*
G01X12094250Y-292826D01*
G01X12082820Y-304256D01*
G01X12076978Y-321528D01*
G01X12076978Y-332958D01*
G01X12082820Y-349976D01*
G01X12094250Y-361406D01*
G01X12105680Y-367248D01*
G01X12122698Y-367248D01*
G01X12134128Y-361406D01*
G01X12145558Y-349976D01*
G01X12151400Y-332958D01*
G01X12151400Y-321528D01*
G01X12145558Y-304256D01*
G01X12134128Y-292826D01*
G01X12122698Y-287238D01*
G01X12105680Y-287238D01*
G01X12199152Y-287238D02*
G01X12199152Y-344388D01*
G01X12204994Y-361406D01*
G01X12216424Y-367248D01*
G01X12233442Y-367248D01*
G01X12244872Y-361406D01*
G01X12262144Y-344388D01*
G01X12262144Y-287238D02*
G01X12262144Y-367248D01*
G01X12309896Y-287238D02*
G01X12309896Y-367248D01*
G01X12309896Y-310098D02*
G01X12327168Y-292826D01*
G01X12338598Y-287238D01*
G01X12355616Y-287238D01*
G01X12367046Y-292826D01*
G01X12372888Y-310098D01*
G01X12372888Y-367248D01*
G01X12437912Y-247106D02*
G01X12437912Y-344388D01*
G01X12443500Y-361406D01*
G01X12454930Y-367248D01*
G01X12466360Y-367248D01*
G01X12420640Y-287238D02*
G01X12460772Y-287238D01*
G01X13437547Y-264378D02*
G01X13426117Y-252948D01*
G01X13409099Y-247106D01*
G01X13386239Y-247106D01*
G01X13368967Y-252948D01*
G01X13357537Y-264378D01*
G01X13357537Y-275808D01*
G01X13363379Y-287238D01*
G01X13368967Y-292826D01*
G01X13380397Y-298668D01*
G01X13414687Y-310098D01*
G01X13426117Y-315686D01*
G01X13431959Y-321528D01*
G01X13437547Y-332958D01*
G01X13437547Y-349976D01*
G01X13426117Y-361406D01*
G01X13409099Y-367248D01*
G01X13386239Y-367248D01*
G01X13368967Y-361406D01*
G01X13357537Y-349976D01*
G01X13485299Y-247106D02*
G01X13491141Y-252948D01*
G01X13496729Y-247106D01*
G01X13491141Y-241518D01*
G01X13485299Y-247106D01*
G01X13491141Y-287238D02*
G01X13491141Y-367248D01*
G01X13607473Y-287238D02*
G01X13544481Y-367248D01*
G01X13544481Y-287238D02*
G01X13607473Y-287238D01*
G01X13544481Y-367248D02*
G01X13607473Y-367248D01*
G01X13655225Y-321528D02*
G01X13723805Y-321528D01*
G01X13723805Y-310098D01*
G01X13718217Y-298668D01*
G01X13712375Y-292826D01*
G01X13700945Y-287238D01*
G01X13683927Y-287238D01*
G01X13672497Y-292826D01*
G01X13661067Y-304256D01*
G01X13655225Y-321528D01*
G01X13655225Y-332958D01*
G01X13661067Y-349976D01*
G01X13672497Y-361406D01*
G01X13683927Y-367248D01*
G01X13700945Y-367248D01*
G01X13712375Y-361406D01*
G01X13723805Y-349976D01*
G01X17045763Y-247106D02*
G01X17045763Y-367248D01*
G01X17045763Y-247106D02*
G01X17097325Y-247106D01*
G01X17114343Y-252948D01*
G01X17120185Y-258536D01*
G01X17125773Y-269966D01*
G01X17125773Y-287238D01*
G01X17120185Y-298668D01*
G01X17114343Y-304256D01*
G01X17097325Y-310098D01*
G01X17045763Y-310098D01*
G01X17173525Y-247106D02*
G01X17173525Y-367248D01*
G01X17289857Y-287238D02*
G01X17289857Y-367248D01*
G01X17289857Y-304256D02*
G01X17278427Y-292826D01*
G01X17266997Y-287238D01*
G01X17249979Y-287238D01*
G01X17238549Y-292826D01*
G01X17227119Y-304256D01*
G01X17221277Y-321528D01*
G01X17221277Y-332958D01*
G01X17227119Y-349976D01*
G01X17238549Y-361406D01*
G01X17249979Y-367248D01*
G01X17266997Y-367248D01*
G01X17278427Y-361406D01*
G01X17289857Y-349976D01*
G01X17354881Y-247106D02*
G01X17354881Y-344388D01*
G01X17360469Y-361406D01*
G01X17371899Y-367248D01*
G01X17383329Y-367248D01*
G01X17337609Y-287238D02*
G01X17377741Y-287238D01*
G01X17431081Y-321528D02*
G01X17499661Y-321528D01*
G01X17499661Y-310098D01*
G01X17494073Y-298668D01*
G01X17488231Y-292826D01*
G01X17476801Y-287238D01*
G01X17459783Y-287238D01*
G01X17448353Y-292826D01*
G01X17436923Y-304256D01*
G01X17431081Y-321528D01*
G01X17431081Y-332958D01*
G01X17436923Y-349976D01*
G01X17448353Y-361406D01*
G01X17459783Y-367248D01*
G01X17476801Y-367248D01*
G01X17488231Y-361406D01*
G01X17499661Y-349976D01*
G01X17615993Y-247106D02*
G01X17615993Y-367248D01*
G01X17615993Y-304256D02*
G01X17604563Y-292826D01*
G01X17593133Y-287238D01*
G01X17576115Y-287238D01*
G01X17564685Y-292826D01*
G01X17553255Y-304256D01*
G01X17547413Y-321528D01*
G01X17547413Y-332958D01*
G01X17553255Y-349976D01*
G01X17564685Y-361406D01*
G01X17576115Y-367248D01*
G01X17593133Y-367248D01*
G01X17604563Y-361406D01*
G01X17615993Y-349976D01*
G01X18587180Y-264378D02*
G01X18575750Y-252948D01*
G01X18558732Y-247106D01*
G01X18535872Y-247106D01*
G01X18518600Y-252948D01*
G01X18507170Y-264378D01*
G01X18507170Y-275808D01*
G01X18513012Y-287238D01*
G01X18518600Y-292826D01*
G01X18530030Y-298668D01*
G01X18564320Y-310098D01*
G01X18575750Y-315686D01*
G01X18581592Y-321528D01*
G01X18587180Y-332958D01*
G01X18587180Y-349976D01*
G01X18575750Y-361406D01*
G01X18558732Y-367248D01*
G01X18535872Y-367248D01*
G01X18518600Y-361406D01*
G01X18507170Y-349976D01*
G01X18634932Y-247106D02*
G01X18634932Y-367248D01*
G01X18634932Y-310098D02*
G01X18652204Y-292826D01*
G01X18663634Y-287238D01*
G01X18680652Y-287238D01*
G01X18692082Y-292826D01*
G01X18697924Y-310098D01*
G01X18697924Y-367248D01*
G01X18814256Y-287238D02*
G01X18814256Y-367248D01*
G01X18814256Y-304256D02*
G01X18802826Y-292826D01*
G01X18791396Y-287238D01*
G01X18774378Y-287238D01*
G01X18762948Y-292826D01*
G01X18751518Y-304256D01*
G01X18745676Y-321528D01*
G01X18745676Y-332958D01*
G01X18751518Y-349976D01*
G01X18762948Y-361406D01*
G01X18774378Y-367248D01*
G01X18791396Y-367248D01*
G01X18802826Y-361406D01*
G01X18814256Y-349976D01*
G01X18862008Y-287238D02*
G01X18862008Y-407126D01*
G01X18862008Y-304256D02*
G01X18873438Y-292826D01*
G01X18884868Y-287238D01*
G01X18902140Y-287238D01*
G01X18913570Y-292826D01*
G01X18925000Y-304256D01*
G01X18930588Y-321528D01*
G01X18930588Y-332958D01*
G01X18925000Y-349976D01*
G01X18913570Y-361406D01*
G01X18902140Y-367248D01*
G01X18884868Y-367248D01*
G01X18873438Y-361406D01*
G01X18862008Y-349976D01*
G01X18978340Y-321528D02*
G01X19046920Y-321528D01*
G01X19046920Y-310098D01*
G01X19041332Y-298668D01*
G01X19035490Y-292826D01*
G01X19024060Y-287238D01*
G01X19007042Y-287238D01*
G01X18995612Y-292826D01*
G01X18984182Y-304256D01*
G01X18978340Y-321528D01*
G01X18978340Y-332958D01*
G01X18984182Y-349976D01*
G01X18995612Y-361406D01*
G01X19007042Y-367248D01*
G01X19024060Y-367248D01*
G01X19035490Y-361406D01*
G01X19046920Y-349976D01*
G01X19938351Y-247106D02*
G01X19984071Y-367248D01*
G01X20029791Y-247106D02*
G01X19984071Y-367248D01*
G01X20077543Y-247106D02*
G01X20083385Y-252948D01*
G01X20088973Y-247106D01*
G01X20083385Y-241518D01*
G01X20077543Y-247106D01*
G01X20083385Y-287238D02*
G01X20083385Y-367248D01*
G01X20205305Y-287238D02*
G01X20205305Y-367248D01*
G01X20205305Y-304256D02*
G01X20193875Y-292826D01*
G01X20182445Y-287238D01*
G01X20165427Y-287238D01*
G01X20153997Y-292826D01*
G01X20142567Y-304256D01*
G01X20136725Y-321528D01*
G01X20136725Y-332958D01*
G01X20142567Y-349976D01*
G01X20153997Y-361406D01*
G01X20165427Y-367248D01*
G01X20182445Y-367248D01*
G01X20193875Y-361406D01*
G01X20205305Y-349976D01*
G01X20355927Y-224246D02*
G01X20253057Y-407126D01*
G01X20403679Y-247106D02*
G01X20403679Y-367248D01*
G01X20403679Y-247106D02*
G01X20455241Y-247106D01*
G01X20472259Y-252948D01*
G01X20478101Y-258536D01*
G01X20483689Y-269966D01*
G01X20483689Y-287238D01*
G01X20478101Y-298668D01*
G01X20472259Y-304256D01*
G01X20455241Y-310098D01*
G01X20403679Y-310098D01*
G01X20600021Y-287238D02*
G01X20600021Y-367248D01*
G01X20600021Y-304256D02*
G01X20588591Y-292826D01*
G01X20577161Y-287238D01*
G01X20560143Y-287238D01*
G01X20548713Y-292826D01*
G01X20537283Y-304256D01*
G01X20531441Y-321528D01*
G01X20531441Y-332958D01*
G01X20537283Y-349976D01*
G01X20548713Y-361406D01*
G01X20560143Y-367248D01*
G01X20577161Y-367248D01*
G01X20588591Y-361406D01*
G01X20600021Y-349976D01*
G01X20716353Y-247106D02*
G01X20716353Y-367248D01*
G01X20716353Y-304256D02*
G01X20704923Y-292826D01*
G01X20693493Y-287238D01*
G01X20676475Y-287238D01*
G01X20665045Y-292826D01*
G01X20653615Y-304256D01*
G01X20647773Y-321528D01*
G01X20647773Y-332958D01*
G01X20653615Y-349976D01*
G01X20665045Y-361406D01*
G01X20676475Y-367248D01*
G01X20693493Y-367248D01*
G01X20704923Y-361406D01*
G01X20716353Y-349976D01*
G01X21607530Y-247106D02*
G01X21607530Y-367248D01*
G01X21607530Y-247106D02*
G01X21659092Y-247106D01*
G01X21676110Y-252948D01*
G01X21681952Y-258536D01*
G01X21687540Y-269966D01*
G01X21687540Y-287238D01*
G01X21681952Y-298668D01*
G01X21676110Y-304256D01*
G01X21659092Y-310098D01*
G01X21607530Y-310098D01*
G01X21803872Y-287238D02*
G01X21803872Y-367248D01*
G01X21803872Y-304256D02*
G01X21792442Y-292826D01*
G01X21781012Y-287238D01*
G01X21763994Y-287238D01*
G01X21752564Y-292826D01*
G01X21741134Y-304256D01*
G01X21735292Y-321528D01*
G01X21735292Y-332958D01*
G01X21741134Y-349976D01*
G01X21752564Y-361406D01*
G01X21763994Y-367248D01*
G01X21781012Y-367248D01*
G01X21792442Y-361406D01*
G01X21803872Y-349976D01*
G01X21920204Y-247106D02*
G01X21920204Y-367248D01*
G01X21920204Y-304256D02*
G01X21908774Y-292826D01*
G01X21897344Y-287238D01*
G01X21880326Y-287238D01*
G01X21868896Y-292826D01*
G01X21857466Y-304256D01*
G01X21851624Y-321528D01*
G01X21851624Y-332958D01*
G01X21857466Y-349976D01*
G01X21868896Y-361406D01*
G01X21880326Y-367248D01*
G01X21897344Y-367248D01*
G01X21908774Y-361406D01*
G01X21920204Y-349976D01*
G01X22175982Y-264378D02*
G01X22164552Y-252948D01*
G01X22147534Y-247106D01*
G01X22124674Y-247106D01*
G01X22107402Y-252948D01*
G01X22095972Y-264378D01*
G01X22095972Y-275808D01*
G01X22101814Y-287238D01*
G01X22107402Y-292826D01*
G01X22118832Y-298668D01*
G01X22153122Y-310098D01*
G01X22164552Y-315686D01*
G01X22170394Y-321528D01*
G01X22175982Y-332958D01*
G01X22175982Y-349976D01*
G01X22164552Y-361406D01*
G01X22147534Y-367248D01*
G01X22124674Y-367248D01*
G01X22107402Y-361406D01*
G01X22095972Y-349976D01*
G01X22223734Y-247106D02*
G01X22223734Y-367248D01*
G01X22223734Y-310098D02*
G01X22241006Y-292826D01*
G01X22252436Y-287238D01*
G01X22269454Y-287238D01*
G01X22280884Y-292826D01*
G01X22286726Y-310098D01*
G01X22286726Y-367248D01*
G01X22403058Y-287238D02*
G01X22403058Y-367248D01*
G01X22403058Y-304256D02*
G01X22391628Y-292826D01*
G01X22380198Y-287238D01*
G01X22363180Y-287238D01*
G01X22351750Y-292826D01*
G01X22340320Y-304256D01*
G01X22334478Y-321528D01*
G01X22334478Y-332958D01*
G01X22340320Y-349976D01*
G01X22351750Y-361406D01*
G01X22363180Y-367248D01*
G01X22380198Y-367248D01*
G01X22391628Y-361406D01*
G01X22403058Y-349976D01*
G01X22450810Y-287238D02*
G01X22450810Y-407126D01*
G01X22450810Y-304256D02*
G01X22462240Y-292826D01*
G01X22473670Y-287238D01*
G01X22490942Y-287238D01*
G01X22502372Y-292826D01*
G01X22513802Y-304256D01*
G01X22519390Y-321528D01*
G01X22519390Y-332958D01*
G01X22513802Y-349976D01*
G01X22502372Y-361406D01*
G01X22490942Y-367248D01*
G01X22473670Y-367248D01*
G01X22462240Y-361406D01*
G01X22450810Y-349976D01*
G01X22567142Y-321528D02*
G01X22635722Y-321528D01*
G01X22635722Y-310098D01*
G01X22630134Y-298668D01*
G01X22624292Y-292826D01*
G01X22612862Y-287238D01*
G01X22595844Y-287238D01*
G01X22584414Y-292826D01*
G01X22572984Y-304256D01*
G01X22567142Y-321528D01*
G01X22567142Y-332958D01*
G01X22572984Y-349976D01*
G01X22584414Y-361406D01*
G01X22595844Y-367248D01*
G01X22612862Y-367248D01*
G01X22624292Y-361406D01*
G01X22635722Y-349976D01*
G01X23526899Y-247106D02*
G01X23526899Y-367248D01*
G01X23526899Y-367248D02*
G01X23595479Y-367248D01*
G01X23711811Y-287238D02*
G01X23711811Y-367248D01*
G01X23711811Y-304256D02*
G01X23700381Y-292826D01*
G01X23688951Y-287238D01*
G01X23671933Y-287238D01*
G01X23660503Y-292826D01*
G01X23649073Y-304256D01*
G01X23643231Y-321528D01*
G01X23643231Y-332958D01*
G01X23649073Y-349976D01*
G01X23660503Y-361406D01*
G01X23671933Y-367248D01*
G01X23688951Y-367248D01*
G01X23700381Y-361406D01*
G01X23711811Y-349976D01*
G01X23765405Y-287238D02*
G01X23799695Y-367248D01*
G01X23833985Y-287238D02*
G01X23799695Y-367248D01*
G01X23788265Y-390108D01*
G01X23776835Y-401538D01*
G01X23765405Y-407126D01*
G01X23759563Y-407126D01*
G01X23881737Y-321528D02*
G01X23950317Y-321528D01*
G01X23950317Y-310098D01*
G01X23944729Y-298668D01*
G01X23938887Y-292826D01*
G01X23927457Y-287238D01*
G01X23910439Y-287238D01*
G01X23899009Y-292826D01*
G01X23887579Y-304256D01*
G01X23881737Y-321528D01*
G01X23881737Y-332958D01*
G01X23887579Y-349976D01*
G01X23899009Y-361406D01*
G01X23910439Y-367248D01*
G01X23927457Y-367248D01*
G01X23938887Y-361406D01*
G01X23950317Y-349976D01*
G01X23998069Y-287238D02*
G01X23998069Y-367248D01*
G01X23998069Y-321528D02*
G01X24003911Y-304256D01*
G01X24015341Y-292826D01*
G01X24026771Y-287238D01*
G01X24043789Y-287238D01*
G01X24219557Y-247106D02*
G01X24219557Y-367248D01*
G01X24219557Y-247106D02*
G01X24271119Y-247106D01*
G01X24288137Y-252948D01*
G01X24293979Y-258536D01*
G01X24299567Y-269966D01*
G01X24299567Y-287238D01*
G01X24293979Y-298668D01*
G01X24288137Y-304256D01*
G01X24271119Y-310098D01*
G01X24219557Y-310098D01*
G01X24415899Y-287238D02*
G01X24415899Y-367248D01*
G01X24415899Y-304256D02*
G01X24404469Y-292826D01*
G01X24393039Y-287238D01*
G01X24376021Y-287238D01*
G01X24364591Y-292826D01*
G01X24353161Y-304256D01*
G01X24347319Y-321528D01*
G01X24347319Y-332958D01*
G01X24353161Y-349976D01*
G01X24364591Y-361406D01*
G01X24376021Y-367248D01*
G01X24393039Y-367248D01*
G01X24404469Y-361406D01*
G01X24415899Y-349976D01*
G01X24463651Y-247106D02*
G01X24469493Y-252948D01*
G01X24475081Y-247106D01*
G01X24469493Y-241518D01*
G01X24463651Y-247106D01*
G01X24469493Y-287238D02*
G01X24469493Y-367248D01*
G01X24522833Y-287238D02*
G01X24522833Y-367248D01*
G01X24522833Y-321528D02*
G01X24528675Y-304256D01*
G01X24540105Y-292826D01*
G01X24551535Y-287238D01*
G01X24568553Y-287238D01*
G01X11943374Y-850537D02*
G01X11954804Y-844949D01*
G01X11972076Y-827677D01*
G01X11972076Y-947819D01*
G01X13357537Y-850537D02*
G01X13368967Y-844949D01*
G01X13386239Y-827677D01*
G01X13386239Y-947819D01*
G01X13439833Y-856379D02*
G01X13439833Y-850537D01*
G01X13445421Y-839107D01*
G01X13451263Y-833519D01*
G01X13462693Y-827677D01*
G01X13485553Y-827677D01*
G01X13496983Y-833519D01*
G01X13502571Y-839107D01*
G01X13508413Y-850537D01*
G01X13508413Y-861967D01*
G01X13502571Y-873397D01*
G01X13491141Y-890669D01*
G01X13433991Y-947819D01*
G01X13514001Y-947819D01*
G01X13567595Y-919117D02*
G01X13561753Y-924959D01*
G01X13567595Y-930547D01*
G01X13573183Y-924959D01*
G01X13567595Y-919117D01*
G01X13655225Y-827677D02*
G01X13638207Y-833519D01*
G01X13626777Y-850537D01*
G01X13620935Y-879239D01*
G01X13620935Y-896257D01*
G01X13626777Y-924959D01*
G01X13638207Y-941977D01*
G01X13655225Y-947819D01*
G01X13666655Y-947819D01*
G01X13683927Y-941977D01*
G01X13695357Y-924959D01*
G01X13700945Y-896257D01*
G01X13700945Y-879239D01*
G01X13695357Y-850537D01*
G01X13683927Y-833519D01*
G01X13666655Y-827677D01*
G01X13655225Y-827677D01*
G01X13748697Y-867809D02*
G01X13748697Y-947819D01*
G01X13748697Y-890669D02*
G01X13765969Y-873397D01*
G01X13777399Y-867809D01*
G01X13794417Y-867809D01*
G01X13805847Y-873397D01*
G01X13811689Y-890669D01*
G01X13811689Y-947819D01*
G01X13811689Y-890669D02*
G01X13828707Y-873397D01*
G01X13840137Y-867809D01*
G01X13857409Y-867809D01*
G01X13868839Y-873397D01*
G01X13874427Y-890669D01*
G01X13874427Y-947819D01*
G01X13922179Y-827677D02*
G01X13928021Y-833519D01*
G01X13933609Y-827677D01*
G01X13928021Y-822089D01*
G01X13922179Y-827677D01*
G01X13928021Y-867809D02*
G01X13928021Y-947819D01*
G01X13981361Y-827677D02*
G01X13981361Y-947819D01*
G01X14069245Y-804817D02*
G01X14057815Y-816247D01*
G01X14046385Y-833519D01*
G01X14034955Y-856379D01*
G01X14029113Y-884827D01*
G01X14029113Y-907687D01*
G01X14034955Y-936389D01*
G01X14046385Y-959249D01*
G01X14057815Y-976267D01*
G01X14069245Y-987697D01*
G01X14151287Y-827677D02*
G01X14134269Y-833519D01*
G01X14122839Y-850537D01*
G01X14116997Y-879239D01*
G01X14116997Y-896257D01*
G01X14122839Y-924959D01*
G01X14134269Y-941977D01*
G01X14151287Y-947819D01*
G01X14162717Y-947819D01*
G01X14179989Y-941977D01*
G01X14191419Y-924959D01*
G01X14197007Y-896257D01*
G01X14197007Y-879239D01*
G01X14191419Y-850537D01*
G01X14179989Y-833519D01*
G01X14162717Y-827677D01*
G01X14151287Y-827677D01*
G01X14250601Y-919117D02*
G01X14244759Y-924959D01*
G01X14250601Y-930547D01*
G01X14256189Y-924959D01*
G01X14250601Y-919117D01*
G01X14315371Y-827677D02*
G01X14378363Y-827677D01*
G01X14344073Y-873397D01*
G01X14361091Y-873397D01*
G01X14372521Y-879239D01*
G01X14378363Y-884827D01*
G01X14383951Y-902099D01*
G01X14383951Y-913529D01*
G01X14378363Y-930547D01*
G01X14366933Y-941977D01*
G01X14349661Y-947819D01*
G01X14332643Y-947819D01*
G01X14315371Y-941977D01*
G01X14309783Y-936389D01*
G01X14303941Y-924959D01*
G01X14465993Y-827677D02*
G01X14448975Y-833519D01*
G01X14437545Y-850537D01*
G01X14431703Y-879239D01*
G01X14431703Y-896257D01*
G01X14437545Y-924959D01*
G01X14448975Y-941977D01*
G01X14465993Y-947819D01*
G01X14477423Y-947819D01*
G01X14494695Y-941977D01*
G01X14506125Y-924959D01*
G01X14511713Y-896257D01*
G01X14511713Y-879239D01*
G01X14506125Y-850537D01*
G01X14494695Y-833519D01*
G01X14477423Y-827677D01*
G01X14465993Y-827677D01*
G01X14628045Y-827677D02*
G01X14570895Y-827677D01*
G01X14565307Y-879239D01*
G01X14570895Y-873397D01*
G01X14588167Y-867809D01*
G01X14605185Y-867809D01*
G01X14622457Y-873397D01*
G01X14633887Y-884827D01*
G01X14639475Y-902099D01*
G01X14639475Y-913529D01*
G01X14633887Y-930547D01*
G01X14622457Y-941977D01*
G01X14605185Y-947819D01*
G01X14588167Y-947819D01*
G01X14570895Y-941977D01*
G01X14565307Y-936389D01*
G01X14559465Y-924959D01*
G01X14687227Y-867809D02*
G01X14687227Y-947819D01*
G01X14687227Y-890669D02*
G01X14704499Y-873397D01*
G01X14715929Y-867809D01*
G01X14732947Y-867809D01*
G01X14744377Y-873397D01*
G01X14750219Y-890669D01*
G01X14750219Y-947819D01*
G01X14750219Y-890669D02*
G01X14767237Y-873397D01*
G01X14778667Y-867809D01*
G01X14795939Y-867809D01*
G01X14807369Y-873397D01*
G01X14812957Y-890669D01*
G01X14812957Y-947819D01*
G01X14860709Y-867809D02*
G01X14860709Y-947819D01*
G01X14860709Y-890669D02*
G01X14877981Y-873397D01*
G01X14889411Y-867809D01*
G01X14906429Y-867809D01*
G01X14917859Y-873397D01*
G01X14923701Y-890669D01*
G01X14923701Y-947819D01*
G01X14923701Y-890669D02*
G01X14940719Y-873397D01*
G01X14952149Y-867809D01*
G01X14969421Y-867809D01*
G01X14980851Y-873397D01*
G01X14986439Y-890669D01*
G01X14986439Y-947819D01*
G01X15034191Y-804817D02*
G01X15045621Y-816247D01*
G01X15057051Y-833519D01*
G01X15068481Y-856379D01*
G01X15074323Y-884827D01*
G01X15074323Y-907687D01*
G01X15068481Y-936389D01*
G01X15057051Y-959249D01*
G01X15045621Y-976267D01*
G01X15034191Y-987697D01*
G01X17045763Y-827677D02*
G01X17045763Y-947819D01*
G01X17045763Y-827677D02*
G01X17097325Y-827677D01*
G01X17114343Y-833519D01*
G01X17120185Y-839107D01*
G01X17125773Y-850537D01*
G01X17125773Y-867809D01*
G01X17120185Y-879239D01*
G01X17114343Y-884827D01*
G01X17097325Y-890669D01*
G01X17045763Y-890669D01*
G01X17213657Y-827677D02*
G01X17213657Y-947819D01*
G01X17173525Y-827677D02*
G01X17253535Y-827677D01*
G01X17301287Y-827677D02*
G01X17301287Y-947819D01*
G01X17381297Y-827677D02*
G01X17381297Y-947819D01*
G01X17301287Y-884827D02*
G01X17381297Y-884827D01*
G01X18507170Y-827677D02*
G01X18507170Y-947819D01*
G01X18507170Y-827677D02*
G01X18558732Y-827677D01*
G01X18575750Y-833519D01*
G01X18581592Y-839107D01*
G01X18587180Y-850537D01*
G01X18587180Y-861967D01*
G01X18581592Y-873397D01*
G01X18575750Y-879239D01*
G01X18558732Y-884827D01*
G01X18507170Y-884827D01*
G01X18547302Y-884827D02*
G01X18587180Y-947819D01*
G01X18663634Y-867809D02*
G01X18652204Y-873397D01*
G01X18640774Y-884827D01*
G01X18634932Y-902099D01*
G01X18634932Y-913529D01*
G01X18640774Y-930547D01*
G01X18652204Y-941977D01*
G01X18663634Y-947819D01*
G01X18680652Y-947819D01*
G01X18692082Y-941977D01*
G01X18703512Y-930547D01*
G01X18709354Y-913529D01*
G01X18709354Y-902099D01*
G01X18703512Y-884827D01*
G01X18692082Y-873397D01*
G01X18680652Y-867809D01*
G01X18663634Y-867809D01*
G01X18757106Y-867809D02*
G01X18757106Y-924959D01*
G01X18762948Y-941977D01*
G01X18774378Y-947819D01*
G01X18791396Y-947819D01*
G01X18802826Y-941977D01*
G01X18820098Y-924959D01*
G01X18820098Y-867809D02*
G01X18820098Y-947819D01*
G01X18867850Y-867809D02*
G01X18867850Y-947819D01*
G01X18867850Y-890669D02*
G01X18885122Y-873397D01*
G01X18896552Y-867809D01*
G01X18913570Y-867809D01*
G01X18925000Y-873397D01*
G01X18930842Y-890669D01*
G01X18930842Y-947819D01*
G01X19047174Y-827677D02*
G01X19047174Y-947819D01*
G01X19047174Y-884827D02*
G01X19035744Y-873397D01*
G01X19024314Y-867809D01*
G01X19007296Y-867809D01*
G01X18995866Y-873397D01*
G01X18984436Y-884827D01*
G01X18978594Y-902099D01*
G01X18978594Y-913529D01*
G01X18984436Y-930547D01*
G01X18995866Y-941977D01*
G01X19007296Y-947819D01*
G01X19024314Y-947819D01*
G01X19035744Y-941977D01*
G01X19047174Y-930547D01*
G01X19938351Y-827677D02*
G01X19984071Y-947819D01*
G01X20029791Y-827677D02*
G01X19984071Y-947819D01*
G01X20077543Y-827677D02*
G01X20083385Y-833519D01*
G01X20088973Y-827677D01*
G01X20083385Y-822089D01*
G01X20077543Y-827677D01*
G01X20083385Y-867809D02*
G01X20083385Y-947819D01*
G01X20205305Y-867809D02*
G01X20205305Y-947819D01*
G01X20205305Y-884827D02*
G01X20193875Y-873397D01*
G01X20182445Y-867809D01*
G01X20165427Y-867809D01*
G01X20153997Y-873397D01*
G01X20142567Y-884827D01*
G01X20136725Y-902099D01*
G01X20136725Y-913529D01*
G01X20142567Y-930547D01*
G01X20153997Y-941977D01*
G01X20165427Y-947819D01*
G01X20182445Y-947819D01*
G01X20193875Y-941977D01*
G01X20205305Y-930547D01*
G01X23567031Y-827677D02*
G01X23567031Y-947819D01*
G01X23526899Y-827677D02*
G01X23606909Y-827677D01*
G01X23683363Y-867809D02*
G01X23671933Y-873397D01*
G01X23660503Y-884827D01*
G01X23654661Y-902099D01*
G01X23654661Y-913529D01*
G01X23660503Y-930547D01*
G01X23671933Y-941977D01*
G01X23683363Y-947819D01*
G01X23700381Y-947819D01*
G01X23711811Y-941977D01*
G01X23723241Y-930547D01*
G01X23729083Y-913529D01*
G01X23729083Y-902099D01*
G01X23723241Y-884827D01*
G01X23711811Y-873397D01*
G01X23700381Y-867809D01*
G01X23683363Y-867809D01*
G01X23776835Y-867809D02*
G01X23776835Y-987697D01*
G01X23776835Y-884827D02*
G01X23788265Y-873397D01*
G01X23799695Y-867809D01*
G01X23816967Y-867809D01*
G01X23828397Y-873397D01*
G01X23839827Y-884827D01*
G01X23845415Y-902099D01*
G01X23845415Y-913529D01*
G01X23839827Y-930547D01*
G01X23828397Y-941977D01*
G01X23816967Y-947819D01*
G01X23799695Y-947819D01*
G01X23788265Y-941977D01*
G01X23776835Y-930547D01*
G01X24021183Y-827677D02*
G01X24021183Y-947819D01*
G01X24021183Y-947819D02*
G01X24089763Y-947819D01*
G01X24206095Y-867809D02*
G01X24206095Y-947819D01*
G01X24206095Y-884827D02*
G01X24194665Y-873397D01*
G01X24183235Y-867809D01*
G01X24166217Y-867809D01*
G01X24154787Y-873397D01*
G01X24143357Y-884827D01*
G01X24137515Y-902099D01*
G01X24137515Y-913529D01*
G01X24143357Y-930547D01*
G01X24154787Y-941977D01*
G01X24166217Y-947819D01*
G01X24183235Y-947819D01*
G01X24194665Y-941977D01*
G01X24206095Y-930547D01*
G01X24259689Y-867809D02*
G01X24293979Y-947819D01*
G01X24328269Y-867809D02*
G01X24293979Y-947819D01*
G01X24282549Y-970679D01*
G01X24271119Y-982109D01*
G01X24259689Y-987697D01*
G01X24253847Y-987697D01*
G01X24376021Y-902099D02*
G01X24444601Y-902099D01*
G01X24444601Y-890669D01*
G01X24439013Y-879239D01*
G01X24433171Y-873397D01*
G01X24421741Y-867809D01*
G01X24404723Y-867809D01*
G01X24393293Y-873397D01*
G01X24381863Y-884827D01*
G01X24376021Y-902099D01*
G01X24376021Y-913529D01*
G01X24381863Y-930547D01*
G01X24393293Y-941977D01*
G01X24404723Y-947819D01*
G01X24421741Y-947819D01*
G01X24433171Y-941977D01*
G01X24444601Y-930547D01*
G01X24492353Y-867809D02*
G01X24492353Y-947819D01*
G01X24492353Y-902099D02*
G01X24498195Y-884827D01*
G01X24509625Y-873397D01*
G01X24521055Y-867809D01*
G01X24538073Y-867809D01*
G01X24585825Y-896257D02*
G01X24688695Y-896257D01*
G01X24736447Y-827677D02*
G01X24736447Y-947819D01*
G01X24736447Y-827677D02*
G01X24788009Y-827677D01*
G01X24805027Y-833519D01*
G01X24810869Y-839107D01*
G01X24816457Y-850537D01*
G01X24816457Y-861967D01*
G01X24810869Y-873397D01*
G01X24805027Y-879239D01*
G01X24788009Y-884827D01*
G01X24736447Y-884827D02*
G01X24788009Y-884827D01*
G01X24805027Y-890669D01*
G01X24810869Y-896257D01*
G01X24816457Y-907687D01*
G01X24816457Y-924959D01*
G01X24810869Y-936389D01*
G01X24805027Y-941977D01*
G01X24788009Y-947819D01*
G01X24736447Y-947819D01*
G01X24892911Y-867809D02*
G01X24881481Y-873397D01*
G01X24870051Y-884827D01*
G01X24864209Y-902099D01*
G01X24864209Y-913529D01*
G01X24870051Y-930547D01*
G01X24881481Y-941977D01*
G01X24892911Y-947819D01*
G01X24909929Y-947819D01*
G01X24921359Y-941977D01*
G01X24932789Y-930547D01*
G01X24938631Y-913529D01*
G01X24938631Y-902099D01*
G01X24932789Y-884827D01*
G01X24921359Y-873397D01*
G01X24909929Y-867809D01*
G01X24892911Y-867809D01*
G01X25003655Y-827677D02*
G01X25003655Y-924959D01*
G01X25009243Y-941977D01*
G01X25020673Y-947819D01*
G01X25032103Y-947819D01*
G01X24986383Y-867809D02*
G01X25026515Y-867809D01*
G01X25097127Y-827677D02*
G01X25097127Y-924959D01*
G01X25102715Y-941977D01*
G01X25114145Y-947819D01*
G01X25125575Y-947819D01*
G01X25079855Y-867809D02*
G01X25119987Y-867809D01*
G01X25202029Y-867809D02*
G01X25190599Y-873397D01*
G01X25179169Y-884827D01*
G01X25173327Y-902099D01*
G01X25173327Y-913529D01*
G01X25179169Y-930547D01*
G01X25190599Y-941977D01*
G01X25202029Y-947819D01*
G01X25219047Y-947819D01*
G01X25230477Y-941977D01*
G01X25241907Y-930547D01*
G01X25247749Y-913529D01*
G01X25247749Y-902099D01*
G01X25241907Y-884827D01*
G01X25230477Y-873397D01*
G01X25219047Y-867809D01*
G01X25202029Y-867809D01*
G01X25295501Y-867809D02*
G01X25295501Y-947819D01*
G01X25295501Y-890669D02*
G01X25312773Y-873397D01*
G01X25324203Y-867809D01*
G01X25341221Y-867809D01*
G01X25352651Y-873397D01*
G01X25358493Y-890669D01*
G01X25358493Y-947819D01*
G01X25358493Y-890669D02*
G01X25375511Y-873397D01*
G01X25386941Y-867809D01*
G01X25404213Y-867809D01*
G01X25415643Y-873397D01*
G01X25421231Y-890669D01*
G01X25421231Y-947819D01*
G01X25596999Y-827677D02*
G01X25596999Y-947819D01*
G01X25596999Y-947819D02*
G01X25665579Y-947819D01*
G01X25781911Y-867809D02*
G01X25781911Y-947819D01*
G01X25781911Y-884827D02*
G01X25770481Y-873397D01*
G01X25759051Y-867809D01*
G01X25742033Y-867809D01*
G01X25730603Y-873397D01*
G01X25719173Y-884827D01*
G01X25713331Y-902099D01*
G01X25713331Y-913529D01*
G01X25719173Y-930547D01*
G01X25730603Y-941977D01*
G01X25742033Y-947819D01*
G01X25759051Y-947819D01*
G01X25770481Y-941977D01*
G01X25781911Y-930547D01*
G01X25835505Y-867809D02*
G01X25869795Y-947819D01*
G01X25904085Y-867809D02*
G01X25869795Y-947819D01*
G01X25858365Y-970679D01*
G01X25846935Y-982109D01*
G01X25835505Y-987697D01*
G01X25829663Y-987697D01*
G01X25951837Y-902099D02*
G01X26020417Y-902099D01*
G01X26020417Y-890669D01*
G01X26014829Y-879239D01*
G01X26008987Y-873397D01*
G01X25997557Y-867809D01*
G01X25980539Y-867809D01*
G01X25969109Y-873397D01*
G01X25957679Y-884827D01*
G01X25951837Y-902099D01*
G01X25951837Y-913529D01*
G01X25957679Y-930547D01*
G01X25969109Y-941977D01*
G01X25980539Y-947819D01*
G01X25997557Y-947819D01*
G01X26008987Y-941977D01*
G01X26020417Y-930547D01*
G01X26068169Y-867809D02*
G01X26068169Y-947819D01*
G01X26068169Y-902099D02*
G01X26074011Y-884827D01*
G01X26085441Y-873397D01*
G01X26096871Y-867809D01*
G01X26113889Y-867809D01*
G01X11943374Y-1431109D02*
G01X11954804Y-1425521D01*
G01X11972076Y-1408249D01*
G01X11972076Y-1528391D01*
G01X13357537Y-1431109D02*
G01X13368967Y-1425521D01*
G01X13386239Y-1408249D01*
G01X13386239Y-1528391D01*
G01X13433991Y-1431109D02*
G01X13445421Y-1425521D01*
G01X13462693Y-1408249D01*
G01X13462693Y-1528391D01*
G01X13516287Y-1499689D02*
G01X13510445Y-1505531D01*
G01X13516287Y-1511119D01*
G01X13521875Y-1505531D01*
G01X13516287Y-1499689D01*
G01X13598329Y-1408249D02*
G01X13581057Y-1414091D01*
G01X13575469Y-1425521D01*
G01X13575469Y-1436951D01*
G01X13581057Y-1448381D01*
G01X13592487Y-1453969D01*
G01X13615347Y-1459811D01*
G01X13632619Y-1465399D01*
G01X13644049Y-1476829D01*
G01X13649637Y-1488259D01*
G01X13649637Y-1505531D01*
G01X13644049Y-1516961D01*
G01X13638207Y-1522549D01*
G01X13621189Y-1528391D01*
G01X13598329Y-1528391D01*
G01X13581057Y-1522549D01*
G01X13575469Y-1516961D01*
G01X13569627Y-1505531D01*
G01X13569627Y-1488259D01*
G01X13575469Y-1476829D01*
G01X13586899Y-1465399D01*
G01X13603917Y-1459811D01*
G01X13626777Y-1453969D01*
G01X13638207Y-1448381D01*
G01X13644049Y-1436951D01*
G01X13644049Y-1425521D01*
G01X13638207Y-1414091D01*
G01X13621189Y-1408249D01*
G01X13598329Y-1408249D01*
G01X13697389Y-1448381D02*
G01X13760381Y-1528391D01*
G01X13760381Y-1448381D02*
G01X13697389Y-1528391D01*
G01X13808133Y-1431109D02*
G01X13819563Y-1425521D01*
G01X13836835Y-1408249D01*
G01X13836835Y-1528391D01*
G01X13884587Y-1431109D02*
G01X13896017Y-1425521D01*
G01X13913289Y-1408249D01*
G01X13913289Y-1528391D01*
G01X13966883Y-1499689D02*
G01X13961041Y-1505531D01*
G01X13966883Y-1511119D01*
G01X13972471Y-1505531D01*
G01X13966883Y-1499689D01*
G01X14048925Y-1408249D02*
G01X14031653Y-1414091D01*
G01X14026065Y-1425521D01*
G01X14026065Y-1436951D01*
G01X14031653Y-1448381D01*
G01X14043083Y-1453969D01*
G01X14065943Y-1459811D01*
G01X14083215Y-1465399D01*
G01X14094645Y-1476829D01*
G01X14100233Y-1488259D01*
G01X14100233Y-1505531D01*
G01X14094645Y-1516961D01*
G01X14088803Y-1522549D01*
G01X14071785Y-1528391D01*
G01X14048925Y-1528391D01*
G01X14031653Y-1522549D01*
G01X14026065Y-1516961D01*
G01X14020223Y-1505531D01*
G01X14020223Y-1488259D01*
G01X14026065Y-1476829D01*
G01X14037495Y-1465399D01*
G01X14054513Y-1459811D01*
G01X14077373Y-1453969D01*
G01X14088803Y-1448381D01*
G01X14094645Y-1436951D01*
G01X14094645Y-1425521D01*
G01X14088803Y-1414091D01*
G01X14071785Y-1408249D01*
G01X14048925Y-1408249D01*
G01X14147985Y-1448381D02*
G01X14147985Y-1528391D01*
G01X14147985Y-1471241D02*
G01X14165257Y-1453969D01*
G01X14176687Y-1448381D01*
G01X14193705Y-1448381D01*
G01X14205135Y-1453969D01*
G01X14210977Y-1471241D01*
G01X14210977Y-1528391D01*
G01X14210977Y-1471241D02*
G01X14227995Y-1453969D01*
G01X14239425Y-1448381D01*
G01X14256697Y-1448381D01*
G01X14268127Y-1453969D01*
G01X14273715Y-1471241D01*
G01X14273715Y-1528391D01*
G01X14321467Y-1408249D02*
G01X14327309Y-1414091D01*
G01X14332897Y-1408249D01*
G01X14327309Y-1402661D01*
G01X14321467Y-1408249D01*
G01X14327309Y-1448381D02*
G01X14327309Y-1528391D01*
G01X14380649Y-1408249D02*
G01X14380649Y-1528391D01*
G01X14468533Y-1385389D02*
G01X14457103Y-1396819D01*
G01X14445673Y-1414091D01*
G01X14434243Y-1436951D01*
G01X14428401Y-1465399D01*
G01X14428401Y-1488259D01*
G01X14434243Y-1516961D01*
G01X14445673Y-1539821D01*
G01X14457103Y-1556839D01*
G01X14468533Y-1568269D01*
G01X14550575Y-1408249D02*
G01X14533557Y-1414091D01*
G01X14522127Y-1431109D01*
G01X14516285Y-1459811D01*
G01X14516285Y-1476829D01*
G01X14522127Y-1505531D01*
G01X14533557Y-1522549D01*
G01X14550575Y-1528391D01*
G01X14562005Y-1528391D01*
G01X14579277Y-1522549D01*
G01X14590707Y-1505531D01*
G01X14596295Y-1476829D01*
G01X14596295Y-1459811D01*
G01X14590707Y-1431109D01*
G01X14579277Y-1414091D01*
G01X14562005Y-1408249D01*
G01X14550575Y-1408249D01*
G01X14649889Y-1499689D02*
G01X14644047Y-1505531D01*
G01X14649889Y-1511119D01*
G01X14655477Y-1505531D01*
G01X14649889Y-1499689D01*
G01X14714659Y-1408249D02*
G01X14777651Y-1408249D01*
G01X14743361Y-1453969D01*
G01X14760379Y-1453969D01*
G01X14771809Y-1459811D01*
G01X14777651Y-1465399D01*
G01X14783239Y-1482671D01*
G01X14783239Y-1494101D01*
G01X14777651Y-1511119D01*
G01X14766221Y-1522549D01*
G01X14748949Y-1528391D01*
G01X14731931Y-1528391D01*
G01X14714659Y-1522549D01*
G01X14709071Y-1516961D01*
G01X14703229Y-1505531D01*
G01X14865281Y-1408249D02*
G01X14848263Y-1414091D01*
G01X14836833Y-1431109D01*
G01X14830991Y-1459811D01*
G01X14830991Y-1476829D01*
G01X14836833Y-1505531D01*
G01X14848263Y-1522549D01*
G01X14865281Y-1528391D01*
G01X14876711Y-1528391D01*
G01X14893983Y-1522549D01*
G01X14905413Y-1505531D01*
G01X14911001Y-1476829D01*
G01X14911001Y-1459811D01*
G01X14905413Y-1431109D01*
G01X14893983Y-1414091D01*
G01X14876711Y-1408249D01*
G01X14865281Y-1408249D01*
G01X14993043Y-1408249D02*
G01X14976025Y-1414091D01*
G01X14964595Y-1431109D01*
G01X14958753Y-1459811D01*
G01X14958753Y-1476829D01*
G01X14964595Y-1505531D01*
G01X14976025Y-1522549D01*
G01X14993043Y-1528391D01*
G01X15004473Y-1528391D01*
G01X15021745Y-1522549D01*
G01X15033175Y-1505531D01*
G01X15038763Y-1476829D01*
G01X15038763Y-1459811D01*
G01X15033175Y-1431109D01*
G01X15021745Y-1414091D01*
G01X15004473Y-1408249D01*
G01X14993043Y-1408249D01*
G01X15086515Y-1448381D02*
G01X15149507Y-1528391D01*
G01X15149507Y-1448381D02*
G01X15086515Y-1528391D01*
G01X15231549Y-1408249D02*
G01X15214531Y-1414091D01*
G01X15203101Y-1431109D01*
G01X15197259Y-1459811D01*
G01X15197259Y-1476829D01*
G01X15203101Y-1505531D01*
G01X15214531Y-1522549D01*
G01X15231549Y-1528391D01*
G01X15242979Y-1528391D01*
G01X15260251Y-1522549D01*
G01X15271681Y-1505531D01*
G01X15277269Y-1476829D01*
G01X15277269Y-1459811D01*
G01X15271681Y-1431109D01*
G01X15260251Y-1414091D01*
G01X15242979Y-1408249D01*
G01X15231549Y-1408249D01*
G01X15330863Y-1499689D02*
G01X15325021Y-1505531D01*
G01X15330863Y-1511119D01*
G01X15336451Y-1505531D01*
G01X15330863Y-1499689D01*
G01X15395633Y-1408249D02*
G01X15458625Y-1408249D01*
G01X15424335Y-1453969D01*
G01X15441353Y-1453969D01*
G01X15452783Y-1459811D01*
G01X15458625Y-1465399D01*
G01X15464213Y-1482671D01*
G01X15464213Y-1494101D01*
G01X15458625Y-1511119D01*
G01X15447195Y-1522549D01*
G01X15429923Y-1528391D01*
G01X15412905Y-1528391D01*
G01X15395633Y-1522549D01*
G01X15390045Y-1516961D01*
G01X15384203Y-1505531D01*
G01X15546255Y-1408249D02*
G01X15529237Y-1414091D01*
G01X15517807Y-1431109D01*
G01X15511965Y-1459811D01*
G01X15511965Y-1476829D01*
G01X15517807Y-1505531D01*
G01X15529237Y-1522549D01*
G01X15546255Y-1528391D01*
G01X15557685Y-1528391D01*
G01X15574957Y-1522549D01*
G01X15586387Y-1505531D01*
G01X15591975Y-1476829D01*
G01X15591975Y-1459811D01*
G01X15586387Y-1431109D01*
G01X15574957Y-1414091D01*
G01X15557685Y-1408249D01*
G01X15546255Y-1408249D01*
G01X15674017Y-1408249D02*
G01X15656999Y-1414091D01*
G01X15645569Y-1431109D01*
G01X15639727Y-1459811D01*
G01X15639727Y-1476829D01*
G01X15645569Y-1505531D01*
G01X15656999Y-1522549D01*
G01X15674017Y-1528391D01*
G01X15685447Y-1528391D01*
G01X15702719Y-1522549D01*
G01X15714149Y-1505531D01*
G01X15719737Y-1476829D01*
G01X15719737Y-1459811D01*
G01X15714149Y-1431109D01*
G01X15702719Y-1414091D01*
G01X15685447Y-1408249D01*
G01X15674017Y-1408249D01*
G01X15767489Y-1448381D02*
G01X15767489Y-1528391D01*
G01X15767489Y-1471241D02*
G01X15784761Y-1453969D01*
G01X15796191Y-1448381D01*
G01X15813209Y-1448381D01*
G01X15824639Y-1453969D01*
G01X15830481Y-1471241D01*
G01X15830481Y-1528391D01*
G01X15830481Y-1471241D02*
G01X15847499Y-1453969D01*
G01X15858929Y-1448381D01*
G01X15876201Y-1448381D01*
G01X15887631Y-1453969D01*
G01X15893219Y-1471241D01*
G01X15893219Y-1528391D01*
G01X15940971Y-1448381D02*
G01X15940971Y-1528391D01*
G01X15940971Y-1471241D02*
G01X15958243Y-1453969D01*
G01X15969673Y-1448381D01*
G01X15986691Y-1448381D01*
G01X15998121Y-1453969D01*
G01X16003963Y-1471241D01*
G01X16003963Y-1528391D01*
G01X16003963Y-1471241D02*
G01X16020981Y-1453969D01*
G01X16032411Y-1448381D01*
G01X16049683Y-1448381D01*
G01X16061113Y-1453969D01*
G01X16066701Y-1471241D01*
G01X16066701Y-1528391D01*
G01X16114453Y-1385389D02*
G01X16125883Y-1396819D01*
G01X16137313Y-1414091D01*
G01X16148743Y-1436951D01*
G01X16154585Y-1465399D01*
G01X16154585Y-1488259D01*
G01X16148743Y-1516961D01*
G01X16137313Y-1539821D01*
G01X16125883Y-1556839D01*
G01X16114453Y-1568269D01*
G01X17045763Y-1408249D02*
G01X17045763Y-1528391D01*
G01X17045763Y-1408249D02*
G01X17097325Y-1408249D01*
G01X17114343Y-1414091D01*
G01X17120185Y-1419679D01*
G01X17125773Y-1431109D01*
G01X17125773Y-1448381D01*
G01X17120185Y-1459811D01*
G01X17114343Y-1465399D01*
G01X17097325Y-1471241D01*
G01X17045763Y-1471241D01*
G01X17213657Y-1408249D02*
G01X17213657Y-1528391D01*
G01X17173525Y-1408249D02*
G01X17253535Y-1408249D01*
G01X17301287Y-1408249D02*
G01X17301287Y-1528391D01*
G01X17381297Y-1408249D02*
G01X17381297Y-1528391D01*
G01X17301287Y-1465399D02*
G01X17381297Y-1465399D01*
G01X18507170Y-1408249D02*
G01X18507170Y-1528391D01*
G01X18507170Y-1408249D02*
G01X18558732Y-1408249D01*
G01X18575750Y-1414091D01*
G01X18581592Y-1419679D01*
G01X18587180Y-1431109D01*
G01X18587180Y-1442539D01*
G01X18581592Y-1453969D01*
G01X18575750Y-1459811D01*
G01X18558732Y-1465399D01*
G01X18507170Y-1465399D01*
G01X18547302Y-1465399D02*
G01X18587180Y-1528391D01*
G01X18663634Y-1448381D02*
G01X18652204Y-1453969D01*
G01X18640774Y-1465399D01*
G01X18634932Y-1482671D01*
G01X18634932Y-1494101D01*
G01X18640774Y-1511119D01*
G01X18652204Y-1522549D01*
G01X18663634Y-1528391D01*
G01X18680652Y-1528391D01*
G01X18692082Y-1522549D01*
G01X18703512Y-1511119D01*
G01X18709354Y-1494101D01*
G01X18709354Y-1482671D01*
G01X18703512Y-1465399D01*
G01X18692082Y-1453969D01*
G01X18680652Y-1448381D01*
G01X18663634Y-1448381D01*
G01X18757106Y-1448381D02*
G01X18757106Y-1505531D01*
G01X18762948Y-1522549D01*
G01X18774378Y-1528391D01*
G01X18791396Y-1528391D01*
G01X18802826Y-1522549D01*
G01X18820098Y-1505531D01*
G01X18820098Y-1448381D02*
G01X18820098Y-1528391D01*
G01X18867850Y-1448381D02*
G01X18867850Y-1528391D01*
G01X18867850Y-1471241D02*
G01X18885122Y-1453969D01*
G01X18896552Y-1448381D01*
G01X18913570Y-1448381D01*
G01X18925000Y-1453969D01*
G01X18930842Y-1471241D01*
G01X18930842Y-1528391D01*
G01X19047174Y-1408249D02*
G01X19047174Y-1528391D01*
G01X19047174Y-1465399D02*
G01X19035744Y-1453969D01*
G01X19024314Y-1448381D01*
G01X19007296Y-1448381D01*
G01X18995866Y-1453969D01*
G01X18984436Y-1465399D01*
G01X18978594Y-1482671D01*
G01X18978594Y-1494101D01*
G01X18984436Y-1511119D01*
G01X18995866Y-1522549D01*
G01X19007296Y-1528391D01*
G01X19024314Y-1528391D01*
G01X19035744Y-1522549D01*
G01X19047174Y-1511119D01*
G01X19938351Y-1408249D02*
G01X19938351Y-1528391D01*
G01X19938351Y-1408249D02*
G01X19989913Y-1408249D01*
G01X20006931Y-1414091D01*
G01X20012773Y-1419679D01*
G01X20018361Y-1431109D01*
G01X20018361Y-1448381D01*
G01X20012773Y-1459811D01*
G01X20006931Y-1465399D01*
G01X19989913Y-1471241D01*
G01X19938351Y-1471241D01*
G01X20134693Y-1448381D02*
G01X20134693Y-1528391D01*
G01X20134693Y-1465399D02*
G01X20123263Y-1453969D01*
G01X20111833Y-1448381D01*
G01X20094815Y-1448381D01*
G01X20083385Y-1453969D01*
G01X20071955Y-1465399D01*
G01X20066113Y-1482671D01*
G01X20066113Y-1494101D01*
G01X20071955Y-1511119D01*
G01X20083385Y-1522549D01*
G01X20094815Y-1528391D01*
G01X20111833Y-1528391D01*
G01X20123263Y-1522549D01*
G01X20134693Y-1511119D01*
G01X20251025Y-1408249D02*
G01X20251025Y-1528391D01*
G01X20251025Y-1465399D02*
G01X20239595Y-1453969D01*
G01X20228165Y-1448381D01*
G01X20211147Y-1448381D01*
G01X20199717Y-1453969D01*
G01X20188287Y-1465399D01*
G01X20182445Y-1482671D01*
G01X20182445Y-1494101D01*
G01X20188287Y-1511119D01*
G01X20199717Y-1522549D01*
G01X20211147Y-1528391D01*
G01X20228165Y-1528391D01*
G01X20239595Y-1522549D01*
G01X20251025Y-1511119D01*
G01X21607530Y-1408249D02*
G01X21607530Y-1528391D01*
G01X21607530Y-1408249D02*
G01X21659092Y-1408249D01*
G01X21676110Y-1414091D01*
G01X21681952Y-1419679D01*
G01X21687540Y-1431109D01*
G01X21687540Y-1442539D01*
G01X21681952Y-1453969D01*
G01X21676110Y-1459811D01*
G01X21659092Y-1465399D01*
G01X21607530Y-1465399D01*
G01X21647662Y-1465399D02*
G01X21687540Y-1528391D01*
G01X21763994Y-1448381D02*
G01X21752564Y-1453969D01*
G01X21741134Y-1465399D01*
G01X21735292Y-1482671D01*
G01X21735292Y-1494101D01*
G01X21741134Y-1511119D01*
G01X21752564Y-1522549D01*
G01X21763994Y-1528391D01*
G01X21781012Y-1528391D01*
G01X21792442Y-1522549D01*
G01X21803872Y-1511119D01*
G01X21809714Y-1494101D01*
G01X21809714Y-1482671D01*
G01X21803872Y-1465399D01*
G01X21792442Y-1453969D01*
G01X21781012Y-1448381D01*
G01X21763994Y-1448381D01*
G01X21857466Y-1448381D02*
G01X21857466Y-1505531D01*
G01X21863308Y-1522549D01*
G01X21874738Y-1528391D01*
G01X21891756Y-1528391D01*
G01X21903186Y-1522549D01*
G01X21920458Y-1505531D01*
G01X21920458Y-1448381D02*
G01X21920458Y-1528391D01*
G01X21968210Y-1448381D02*
G01X21968210Y-1528391D01*
G01X21968210Y-1471241D02*
G01X21985482Y-1453969D01*
G01X21996912Y-1448381D01*
G01X22013930Y-1448381D01*
G01X22025360Y-1453969D01*
G01X22031202Y-1471241D01*
G01X22031202Y-1528391D01*
G01X22147534Y-1408249D02*
G01X22147534Y-1528391D01*
G01X22147534Y-1465399D02*
G01X22136104Y-1453969D01*
G01X22124674Y-1448381D01*
G01X22107656Y-1448381D01*
G01X22096226Y-1453969D01*
G01X22084796Y-1465399D01*
G01X22078954Y-1482671D01*
G01X22078954Y-1494101D01*
G01X22084796Y-1511119D01*
G01X22096226Y-1522549D01*
G01X22107656Y-1528391D01*
G01X22124674Y-1528391D01*
G01X22136104Y-1522549D01*
G01X22147534Y-1511119D01*
G01X23567031Y-1408249D02*
G01X23567031Y-1528391D01*
G01X23526899Y-1408249D02*
G01X23606909Y-1408249D01*
G01X23683363Y-1448381D02*
G01X23671933Y-1453969D01*
G01X23660503Y-1465399D01*
G01X23654661Y-1482671D01*
G01X23654661Y-1494101D01*
G01X23660503Y-1511119D01*
G01X23671933Y-1522549D01*
G01X23683363Y-1528391D01*
G01X23700381Y-1528391D01*
G01X23711811Y-1522549D01*
G01X23723241Y-1511119D01*
G01X23729083Y-1494101D01*
G01X23729083Y-1482671D01*
G01X23723241Y-1465399D01*
G01X23711811Y-1453969D01*
G01X23700381Y-1448381D01*
G01X23683363Y-1448381D01*
G01X23776835Y-1448381D02*
G01X23776835Y-1568269D01*
G01X23776835Y-1465399D02*
G01X23788265Y-1453969D01*
G01X23799695Y-1448381D01*
G01X23816967Y-1448381D01*
G01X23828397Y-1453969D01*
G01X23839827Y-1465399D01*
G01X23845415Y-1482671D01*
G01X23845415Y-1494101D01*
G01X23839827Y-1511119D01*
G01X23828397Y-1522549D01*
G01X23816967Y-1528391D01*
G01X23799695Y-1528391D01*
G01X23788265Y-1522549D01*
G01X23776835Y-1511119D01*
G01X24021183Y-1408249D02*
G01X24021183Y-1528391D01*
G01X24021183Y-1528391D02*
G01X24089763Y-1528391D01*
G01X24206095Y-1448381D02*
G01X24206095Y-1528391D01*
G01X24206095Y-1465399D02*
G01X24194665Y-1453969D01*
G01X24183235Y-1448381D01*
G01X24166217Y-1448381D01*
G01X24154787Y-1453969D01*
G01X24143357Y-1465399D01*
G01X24137515Y-1482671D01*
G01X24137515Y-1494101D01*
G01X24143357Y-1511119D01*
G01X24154787Y-1522549D01*
G01X24166217Y-1528391D01*
G01X24183235Y-1528391D01*
G01X24194665Y-1522549D01*
G01X24206095Y-1511119D01*
G01X24259689Y-1448381D02*
G01X24293979Y-1528391D01*
G01X24328269Y-1448381D02*
G01X24293979Y-1528391D01*
G01X24282549Y-1551251D01*
G01X24271119Y-1562681D01*
G01X24259689Y-1568269D01*
G01X24253847Y-1568269D01*
G01X24376021Y-1482671D02*
G01X24444601Y-1482671D01*
G01X24444601Y-1471241D01*
G01X24439013Y-1459811D01*
G01X24433171Y-1453969D01*
G01X24421741Y-1448381D01*
G01X24404723Y-1448381D01*
G01X24393293Y-1453969D01*
G01X24381863Y-1465399D01*
G01X24376021Y-1482671D01*
G01X24376021Y-1494101D01*
G01X24381863Y-1511119D01*
G01X24393293Y-1522549D01*
G01X24404723Y-1528391D01*
G01X24421741Y-1528391D01*
G01X24433171Y-1522549D01*
G01X24444601Y-1511119D01*
G01X24492353Y-1448381D02*
G01X24492353Y-1528391D01*
G01X24492353Y-1482671D02*
G01X24498195Y-1465399D01*
G01X24509625Y-1453969D01*
G01X24521055Y-1448381D01*
G01X24538073Y-1448381D01*
G01X24585825Y-1476829D02*
G01X24688695Y-1476829D01*
G01X24736447Y-1408249D02*
G01X24736447Y-1528391D01*
G01X24736447Y-1408249D02*
G01X24788009Y-1408249D01*
G01X24805027Y-1414091D01*
G01X24810869Y-1419679D01*
G01X24816457Y-1431109D01*
G01X24816457Y-1442539D01*
G01X24810869Y-1453969D01*
G01X24805027Y-1459811D01*
G01X24788009Y-1465399D01*
G01X24736447Y-1465399D02*
G01X24788009Y-1465399D01*
G01X24805027Y-1471241D01*
G01X24810869Y-1476829D01*
G01X24816457Y-1488259D01*
G01X24816457Y-1505531D01*
G01X24810869Y-1516961D01*
G01X24805027Y-1522549D01*
G01X24788009Y-1528391D01*
G01X24736447Y-1528391D01*
G01X24892911Y-1448381D02*
G01X24881481Y-1453969D01*
G01X24870051Y-1465399D01*
G01X24864209Y-1482671D01*
G01X24864209Y-1494101D01*
G01X24870051Y-1511119D01*
G01X24881481Y-1522549D01*
G01X24892911Y-1528391D01*
G01X24909929Y-1528391D01*
G01X24921359Y-1522549D01*
G01X24932789Y-1511119D01*
G01X24938631Y-1494101D01*
G01X24938631Y-1482671D01*
G01X24932789Y-1465399D01*
G01X24921359Y-1453969D01*
G01X24909929Y-1448381D01*
G01X24892911Y-1448381D01*
G01X25003655Y-1408249D02*
G01X25003655Y-1505531D01*
G01X25009243Y-1522549D01*
G01X25020673Y-1528391D01*
G01X25032103Y-1528391D01*
G01X24986383Y-1448381D02*
G01X25026515Y-1448381D01*
G01X25097127Y-1408249D02*
G01X25097127Y-1505531D01*
G01X25102715Y-1522549D01*
G01X25114145Y-1528391D01*
G01X25125575Y-1528391D01*
G01X25079855Y-1448381D02*
G01X25119987Y-1448381D01*
G01X25202029Y-1448381D02*
G01X25190599Y-1453969D01*
G01X25179169Y-1465399D01*
G01X25173327Y-1482671D01*
G01X25173327Y-1494101D01*
G01X25179169Y-1511119D01*
G01X25190599Y-1522549D01*
G01X25202029Y-1528391D01*
G01X25219047Y-1528391D01*
G01X25230477Y-1522549D01*
G01X25241907Y-1511119D01*
G01X25247749Y-1494101D01*
G01X25247749Y-1482671D01*
G01X25241907Y-1465399D01*
G01X25230477Y-1453969D01*
G01X25219047Y-1448381D01*
G01X25202029Y-1448381D01*
G01X25295501Y-1448381D02*
G01X25295501Y-1528391D01*
G01X25295501Y-1471241D02*
G01X25312773Y-1453969D01*
G01X25324203Y-1448381D01*
G01X25341221Y-1448381D01*
G01X25352651Y-1453969D01*
G01X25358493Y-1471241D01*
G01X25358493Y-1528391D01*
G01X25358493Y-1471241D02*
G01X25375511Y-1453969D01*
G01X25386941Y-1448381D01*
G01X25404213Y-1448381D01*
G01X25415643Y-1453969D01*
G01X25421231Y-1471241D01*
G01X25421231Y-1528391D01*
G01X25596999Y-1408249D02*
G01X25596999Y-1528391D01*
G01X25596999Y-1528391D02*
G01X25665579Y-1528391D01*
G01X25781911Y-1448381D02*
G01X25781911Y-1528391D01*
G01X25781911Y-1465399D02*
G01X25770481Y-1453969D01*
G01X25759051Y-1448381D01*
G01X25742033Y-1448381D01*
G01X25730603Y-1453969D01*
G01X25719173Y-1465399D01*
G01X25713331Y-1482671D01*
G01X25713331Y-1494101D01*
G01X25719173Y-1511119D01*
G01X25730603Y-1522549D01*
G01X25742033Y-1528391D01*
G01X25759051Y-1528391D01*
G01X25770481Y-1522549D01*
G01X25781911Y-1511119D01*
G01X25835505Y-1448381D02*
G01X25869795Y-1528391D01*
G01X25904085Y-1448381D02*
G01X25869795Y-1528391D01*
G01X25858365Y-1551251D01*
G01X25846935Y-1562681D01*
G01X25835505Y-1568269D01*
G01X25829663Y-1568269D01*
G01X25951837Y-1482671D02*
G01X26020417Y-1482671D01*
G01X26020417Y-1471241D01*
G01X26014829Y-1459811D01*
G01X26008987Y-1453969D01*
G01X25997557Y-1448381D01*
G01X25980539Y-1448381D01*
G01X25969109Y-1453969D01*
G01X25957679Y-1465399D01*
G01X25951837Y-1482671D01*
G01X25951837Y-1494101D01*
G01X25957679Y-1511119D01*
G01X25969109Y-1522549D01*
G01X25980539Y-1528391D01*
G01X25997557Y-1528391D01*
G01X26008987Y-1522549D01*
G01X26020417Y-1511119D01*
G01X26068169Y-1448381D02*
G01X26068169Y-1528391D01*
G01X26068169Y-1482671D02*
G01X26074011Y-1465399D01*
G01X26085441Y-1453969D01*
G01X26096871Y-1448381D01*
G01X26113889Y-1448381D01*

G04 Image Start*
G36*
G01X10649769Y-1635699D02*
G01X10642029Y-1636287D01*
G01X10634186Y-1636486D01*
G01X10626343Y-1636287D01*
G01X10618602Y-1635699D01*
G01X10610975Y-1634730D01*
G01X10603470Y-1633390D01*
G01X10588864Y-1629635D01*
G01X10574862Y-1624510D01*
G01X10561540Y-1618093D01*
G01X10548974Y-1610460D01*
G01X10537242Y-1601687D01*
G01X10526420Y-1591852D01*
G01X10516584Y-1581029D01*
G01X10507811Y-1569297D01*
G01X10500178Y-1556732D01*
G01X10493761Y-1543410D01*
G01X10488637Y-1529408D01*
G01X10484882Y-1514802D01*
G01X10483542Y-1507296D01*
G01X10482572Y-1499669D01*
G01X10481984Y-1491929D01*
G01X10481786Y-1484086D01*
G01X10507186Y-1484086D01*
G01X10507843Y-1497052D01*
G01X10509770Y-1509648D01*
G01X10512905Y-1521810D01*
G01X10517182Y-1533472D01*
G01X10522537Y-1544572D01*
G01X10528905Y-1555043D01*
G01X10536223Y-1564823D01*
G01X10544425Y-1573846D01*
G01X10553449Y-1582049D01*
G01X10563228Y-1589366D01*
G01X10573700Y-1595735D01*
G01X10584799Y-1601090D01*
G01X10596462Y-1605366D01*
G01X10608623Y-1608501D01*
G01X10608623Y-1608501D01*
G01X10621219Y-1610429D01*
G01X10634186Y-1611086D01*
G01X10647152Y-1610429D01*
G01X10659748Y-1608501D01*
G01X10671910Y-1605366D01*
G01X10683572Y-1601090D01*
G01X10694672Y-1595735D01*
G01X10705143Y-1589366D01*
G01X10714923Y-1582049D01*
G01X10723946Y-1573846D01*
G01X10732149Y-1564823D01*
G01X10739466Y-1555043D01*
G01X10745835Y-1544572D01*
G01X10751190Y-1533472D01*
G01X10755466Y-1521810D01*
G01X10758601Y-1509648D01*
G01X10760529Y-1497052D01*
G01X10761186Y-1484086D01*
G01X10760529Y-1471119D01*
G01X10758601Y-1458523D01*
G01X10755466Y-1446362D01*
G01X10751190Y-1434699D01*
G01X10745835Y-1423600D01*
G01X10739466Y-1413128D01*
G01X10732149Y-1403349D01*
G01X10723946Y-1394325D01*
G01X10714923Y-1386123D01*
G01X10705143Y-1378805D01*
G01X10694672Y-1372437D01*
G01X10683572Y-1367082D01*
G01X10671910Y-1362805D01*
G01X10659748Y-1359671D01*
G01X10647152Y-1357743D01*
G01X10634186Y-1357086D01*
G01X10621219Y-1357743D01*
G01X10608623Y-1359671D01*
G01X10596462Y-1362805D01*
G01X10584799Y-1367082D01*
G01X10573700Y-1372437D01*
G01X10563228Y-1378805D01*
G01X10553449Y-1386123D01*
G01X10544425Y-1394325D01*
G01X10536223Y-1403349D01*
G01X10528905Y-1413128D01*
G01X10522537Y-1423600D01*
G01X10517182Y-1434699D01*
G01X10512905Y-1446362D01*
G01X10509770Y-1458523D01*
G01X10507843Y-1471119D01*
G01X10507186Y-1484086D01*
G01X10481786Y-1484086D01*
G01X10481984Y-1476243D01*
G01X10482572Y-1468502D01*
G01X10483542Y-1460875D01*
G01X10484882Y-1453370D01*
G01X10488637Y-1438764D01*
G01X10493761Y-1424762D01*
G01X10500178Y-1411440D01*
G01X10507811Y-1398874D01*
G01X10516584Y-1387142D01*
G01X10526420Y-1376320D01*
G01X10537242Y-1366484D01*
G01X10548974Y-1357711D01*
G01X10561540Y-1350078D01*
G01X10574862Y-1343661D01*
G01X10588864Y-1338537D01*
G01X10603470Y-1334782D01*
G01X10610975Y-1333442D01*
G01X10618602Y-1332472D01*
G01X10626343Y-1331884D01*
G01X10634186Y-1331686D01*
G01X10642029Y-1331884D01*
G01X10649769Y-1332472D01*
G01X10657396Y-1333442D01*
G01X10664902Y-1334782D01*
G01X10679508Y-1338537D01*
G01X10693510Y-1343661D01*
G01X10706832Y-1350078D01*
G01X10719397Y-1357711D01*
G01X10731129Y-1366484D01*
G01X10741952Y-1376320D01*
G01X10751787Y-1387142D01*
G01X10760560Y-1398874D01*
G01X10768193Y-1411440D01*
G01X10774610Y-1424762D01*
G01X10779735Y-1438764D01*
G01X10783490Y-1453370D01*
G01X10784830Y-1460875D01*
G01X10785799Y-1468502D01*
G01X10786387Y-1476243D01*
G01X10786586Y-1484086D01*
G01X10786387Y-1491929D01*
G01X10785799Y-1499669D01*
G01X10784830Y-1507296D01*
G01X10783490Y-1514802D01*
G01X10779735Y-1529408D01*
G01X10774610Y-1543410D01*
G01X10768193Y-1556732D01*
G01X10760560Y-1569297D01*
G01X10751787Y-1581029D01*
G01X10741952Y-1591852D01*
G01X10731129Y-1601687D01*
G01X10719397Y-1610460D01*
G01X10706832Y-1618093D01*
G01X10693510Y-1624510D01*
G01X10679508Y-1629635D01*
G01X10664902Y-1633390D01*
G01X10657396Y-1634730D01*
G01X10649769Y-1635699D01*
G37*
G36*
G01X10481786Y-751114D02*
G01X10761186Y-751114D01*
G01X10761186Y-1030514D01*
G01X10481786Y-1030514D01*
G01X10481786Y-776514D01*
G01X10507186Y-776514D01*
G01X10507186Y-1005114D01*
G01X10735786Y-1005114D01*
G01X10735786Y-776514D01*
G01X10735786Y-776514D01*
G01X10507186Y-776514D01*
G01X10481786Y-776514D01*
G01X10481786Y-751114D01*
G37*

G04 PolygonModel Start*
G54D13*
G01X10191500Y-1767114D02*
G01X26704621Y-1767114D01*
G01X10191500Y-1186543D02*
G01X26704621Y-1186543D01*
G01X10191500Y-605971D02*
G01X26704621Y-605971D01*
G01X10191500Y-25400D02*
G01X26704621Y-25400D01*
G01X10191500Y-25400D02*
G01X10191500Y-1741714D01*
G01X11642929Y-25400D02*
G01X11642929Y-1741714D01*
G01X13057092Y-25400D02*
G01X13057092Y-1741714D01*
G01X16745317Y-25400D02*
G01X16745317Y-1741714D01*
G01X18206724Y-25400D02*
G01X18206724Y-1741714D01*
G01X19637905Y-25400D02*
G01X19637905Y-1741714D01*
G01X21307084Y-25400D02*
G01X21307084Y-1741714D01*
G01X23226453Y-25400D02*
G01X23226453Y-1741714D01*
G01X26704621Y-25400D02*
G01X26704621Y-1741714D01*

M02*

