G04 Layer: BottomSilkscreenLayer*
G04 EasyEDA Pro v3.2.148, 2026-07-02 21:29:31*
G04 Gerber Generator version 0.3*
G04 Scale: 100 percent, Rotated: No, Reflected: No*
G04 Dimensions in millimeters*
G04 Leading zeros omitted, absolute positions, 4 integers and 5 decimals*
G04 Generated by one-click*
G04 Object Configs: Pad,Via,Track,Text,Image,Dimension,BoardOutline,BoardCutout,CopperFilled,SolidRegion,FPCStiffener,Line,PlaneZone,ComponentProperty,ComponentSilkscreen,TearDrop*
G04 Layer Configs: 1,2,3,4,5,6,7,8,9,10,11,13,14,56*
G04 Copper Areas: 0*
%FSLAX45Y45*%
%MOMM*%
%ADD10C,0.254*%
%ADD11C,0.5722*%
G75*


G04 Text Start*
G36*
G01X7868613Y-5027947D02*
G01X7789027Y-5027947D01*
G01X7789027Y-5008473D01*
G01X7890627Y-5008473D01*
G01X7890627Y-5213367D01*
G01X7789027Y-5213367D01*
G01X7789027Y-5193893D01*
G01X7868613Y-5193893D01*
G01X7868613Y-5116847D01*
G01X7805113Y-5116847D01*
G01X7804690Y-5114730D01*
G01X7804267Y-5104993D01*
G01X7804267Y-5097373D01*
G01X7868613Y-5097373D01*
G01X7868613Y-5027947D01*
G37*
G36*
G01X3544475Y-5077371D02*
G01X3544687Y-5073667D01*
G01X3544687Y-5068587D01*
G01X3566700Y-5068587D01*
G01X3566700Y-5213367D01*
G01X3544687Y-5213367D01*
G01X3544687Y-5155370D01*
G01X3544263Y-5096103D01*
G01X3542993Y-5092717D01*
G01X3540453Y-5088907D01*
G01X3536643Y-5086367D01*
G01X3531987Y-5085520D01*
G01X3527753Y-5086790D01*
G01X3525213Y-5088907D01*
G01X3523520Y-5091447D01*
G01X3521827Y-5095680D01*
G01X3520980Y-5155793D01*
G01X3520980Y-5213367D01*
G01X3498967Y-5213367D01*
G01X3498967Y-5154947D01*
G01X3498543Y-5095257D01*
G01X3497273Y-5091870D01*
G01X3495157Y-5088907D01*
G01X3492617Y-5087213D01*
G01X3489230Y-5085943D01*
G01X3484573Y-5085943D01*
G01X3481187Y-5087637D01*
G01X3479070Y-5089753D01*
G01X3477377Y-5092293D01*
G01X3476530Y-5095257D01*
G01X3475683Y-5098643D01*
G01X3475260Y-5157063D01*
G01X3475260Y-5213367D01*
G01X3453247Y-5213367D01*
G01X3453247Y-5157910D01*
G01X3453670Y-5101183D01*
G01X3454517Y-5091870D01*
G01X3455363Y-5088060D01*
G01X3456633Y-5083827D01*
G01X3457903Y-5080440D01*
G01X3459597Y-5077053D01*
G01X3461713Y-5074090D01*
G01X3463830Y-5071973D01*
G01X3466793Y-5069857D01*
G01X3471027Y-5067740D01*
G01X3476530Y-5066470D01*
G01X3481187Y-5066047D01*
G01X3484150Y-5066470D01*
G01X3487537Y-5067740D01*
G01X3490500Y-5069433D01*
G01X3492617Y-5071127D01*
G01X3495157Y-5074090D01*
G01X3497273Y-5077477D01*
G01X3498967Y-5080863D01*
G01X3500660Y-5083827D01*
G01X3501507Y-5084038D01*
G01X3502353Y-5082980D01*
G01X3504047Y-5079170D01*
G01X3506587Y-5074937D01*
G01X3509550Y-5071973D01*
G01X3511667Y-5070280D01*
G01X3514630Y-5068587D01*
G01X3518017Y-5067317D01*
G01X3521403Y-5066470D01*
G01X3526060Y-5066047D01*
G01X3529870Y-5066470D01*
G01X3533257Y-5067740D01*
G01X3536220Y-5069433D01*
G01X3538337Y-5071127D01*
G01X3540453Y-5073667D01*
G01X3542147Y-5076630D01*
G01X3543840Y-5078323D01*
G01X3544475Y-5077371D01*
G37*
G36*
G01X3664913Y-5213790D02*
G01X3660257Y-5214637D01*
G01X3656870Y-5215060D01*
G01X3654330Y-5215483D01*
G01X3650097Y-5215907D01*
G01X3645017Y-5215483D01*
G01X3637397Y-5214637D01*
G01X3629777Y-5212943D01*
G01X3626390Y-5211673D01*
G01X3623003Y-5209980D01*
G01X3620040Y-5208287D01*
G01X3616653Y-5206170D01*
G01X3613690Y-5204053D01*
G01X3609457Y-5199820D01*
G01X3606070Y-5195587D01*
G01X3604377Y-5193047D01*
G01X3603107Y-5190507D01*
G01X3601413Y-5187543D01*
G01X3599720Y-5183310D01*
G01X3598027Y-5178230D01*
G01X3596757Y-5171457D01*
G01X3595910Y-5164683D01*
G01X3595542Y-5142247D01*
G01X3617500Y-5142247D01*
G01X3617923Y-5169763D01*
G01X3618770Y-5173573D01*
G01X3620040Y-5177383D01*
G01X3621733Y-5180770D01*
G01X3623427Y-5183733D01*
G01X3625120Y-5185850D01*
G01X3627237Y-5187967D01*
G01X3629353Y-5189660D01*
G01X3632317Y-5191777D01*
G01X3636973Y-5193893D01*
G01X3636973Y-5193893D01*
G01X3641630Y-5195163D01*
G01X3646710Y-5196010D01*
G01X3651790Y-5196010D01*
G01X3656870Y-5195587D01*
G01X3661527Y-5194740D01*
G01X3665337Y-5193047D01*
G01X3668300Y-5191353D01*
G01X3670417Y-5189660D01*
G01X3672533Y-5187543D01*
G01X3674227Y-5185427D01*
G01X3676343Y-5182463D01*
G01X3678460Y-5178230D01*
G01X3680153Y-5173573D01*
G01X3681423Y-5167223D01*
G01X3681847Y-5138437D01*
G01X3681423Y-5112190D01*
G01X3680577Y-5108380D01*
G01X3679307Y-5104570D01*
G01X3677613Y-5101183D01*
G01X3675920Y-5098220D01*
G01X3674227Y-5096103D01*
G01X3669993Y-5091870D01*
G01X3667030Y-5089753D01*
G01X3663643Y-5088060D01*
G01X3659410Y-5086790D01*
G01X3655177Y-5085943D01*
G01X3648827Y-5085520D01*
G01X3642477Y-5085943D01*
G01X3639090Y-5086790D01*
G01X3635703Y-5088060D01*
G01X3632740Y-5089753D01*
G01X3628930Y-5092293D01*
G01X3625967Y-5095257D01*
G01X3623850Y-5098220D01*
G01X3621733Y-5102030D01*
G01X3620040Y-5105840D01*
G01X3618770Y-5110497D01*
G01X3617923Y-5114730D01*
G01X3617500Y-5142247D01*
G01X3595542Y-5142247D01*
G01X3595487Y-5138860D01*
G01X3595910Y-5114730D01*
G01X3596757Y-5107957D01*
G01X3597603Y-5104147D01*
G01X3598873Y-5099913D01*
G01X3600143Y-5096527D01*
G01X3601413Y-5093563D01*
G01X3603107Y-5090600D01*
G01X3605647Y-5086790D01*
G01X3608187Y-5083403D01*
G01X3612420Y-5079170D01*
G01X3615383Y-5076630D01*
G01X3619193Y-5074090D01*
G01X3623003Y-5071973D01*
G01X3626390Y-5070280D01*
G01X3630200Y-5069010D01*
G01X3634010Y-5068163D01*
G01X3638243Y-5067317D01*
G01X3643323Y-5066470D01*
G01X3651367Y-5066047D01*
G01X3658563Y-5066470D01*
G01X3664490Y-5067317D01*
G01X3668723Y-5068587D01*
G01X3673803Y-5070280D01*
G01X3677190Y-5071973D01*
G01X3680577Y-5074090D01*
G01X3684810Y-5077053D01*
G01X3689890Y-5082133D01*
G01X3692007Y-5084673D01*
G01X3693700Y-5087213D01*
G01X3695817Y-5090177D01*
G01X3697933Y-5094410D01*
G01X3699627Y-5098643D01*
G01X3701320Y-5103723D01*
G01X3702590Y-5110497D01*
G01X3703437Y-5117270D01*
G01X3703860Y-5143093D01*
G01X3703437Y-5167223D01*
G01X3702590Y-5174843D01*
G01X3701320Y-5179077D01*
G01X3699627Y-5184580D01*
G01X3697933Y-5188390D01*
G01X3696240Y-5191777D01*
G01X3694123Y-5194740D01*
G01X3689890Y-5199820D01*
G01X3685657Y-5204053D01*
G01X3682693Y-5206170D01*
G01X3678883Y-5208710D01*
G01X3674227Y-5210827D01*
G01X3669993Y-5212520D01*
G01X3664913Y-5213790D01*
G37*
G36*
G01X3808000Y-5212943D02*
G01X3804190Y-5213790D01*
G01X3799957Y-5214637D01*
G01X3795300Y-5215483D01*
G01X3789797Y-5215907D01*
G01X3784717Y-5215483D01*
G01X3777097Y-5214637D01*
G01X3773287Y-5213790D01*
G01X3769053Y-5212520D01*
G01X3764820Y-5210827D01*
G01X3760587Y-5208710D01*
G01X3756777Y-5206170D01*
G01X3753813Y-5203630D01*
G01X3749580Y-5199397D01*
G01X3747887Y-5197280D01*
G01X3745770Y-5194317D01*
G01X3743653Y-5190930D01*
G01X3741960Y-5187543D01*
G01X3740267Y-5182887D01*
G01X3738997Y-5178230D01*
G01X3738150Y-5173997D01*
G01X3737303Y-5168917D01*
G01X3737303Y-5164683D01*
G01X3740161Y-5163731D01*
G01X3747887Y-5163413D01*
G01X3758047Y-5163413D01*
G01X3758470Y-5165530D01*
G01X3758893Y-5169763D01*
G01X3759317Y-5173150D01*
G01X3760587Y-5176960D01*
G01X3762703Y-5181617D01*
G01X3764820Y-5185003D01*
G01X3767783Y-5187967D01*
G01X3770747Y-5190507D01*
G01X3773710Y-5192200D01*
G01X3777097Y-5193893D01*
G01X3782177Y-5195163D01*
G01X3788103Y-5196010D01*
G01X3791913Y-5196433D01*
G01X3797840Y-5195587D01*
G01X3801227Y-5194740D01*
G01X3804190Y-5193470D01*
G01X3806730Y-5192200D01*
G01X3809270Y-5190507D01*
G01X3811387Y-5188390D01*
G01X3813080Y-5186273D01*
G01X3815197Y-5183310D01*
G01X3817313Y-5179923D01*
G01X3818583Y-5176960D01*
G01X3819853Y-5173573D01*
G01X3820700Y-5169763D01*
G01X3821123Y-5166377D01*
G01X3821547Y-5138860D01*
G01X3821123Y-5111343D01*
G01X3819853Y-5107110D01*
G01X3818160Y-5102877D01*
G01X3816467Y-5099490D01*
G01X3814350Y-5096527D01*
G01X3812657Y-5094410D01*
G01X3810540Y-5092293D01*
G01X3808000Y-5090600D01*
G01X3805037Y-5088907D01*
G01X3801227Y-5087213D01*
G01X3797840Y-5086367D01*
G01X3794877Y-5085943D01*
G01X3788950Y-5085520D01*
G01X3783023Y-5085943D01*
G01X3779637Y-5086790D01*
G01X3775827Y-5088060D01*
G01X3772440Y-5089753D01*
G01X3769900Y-5091870D01*
G01X3767783Y-5093563D01*
G01X3765667Y-5095680D01*
G01X3763973Y-5098220D01*
G01X3762280Y-5101183D01*
G01X3760587Y-5104993D01*
G01X3759740Y-5108380D01*
G01X3759317Y-5111343D01*
G01X3758893Y-5115153D01*
G01X3758893Y-5117693D01*
G01X3736880Y-5117693D01*
G01X3736880Y-5113883D01*
G01X3737303Y-5108803D01*
G01X3738150Y-5104570D01*
G01X3739420Y-5099913D01*
G01X3741960Y-5093140D01*
G01X3744077Y-5089330D01*
G01X3747040Y-5085097D01*
G01X3749580Y-5081710D01*
G01X3751697Y-5079593D01*
G01X3758470Y-5074513D01*
G01X3761857Y-5072397D01*
G01X3765667Y-5070703D01*
G01X3768630Y-5069433D01*
G01X3772863Y-5068163D01*
G01X3777097Y-5067317D01*
G01X3783870Y-5066470D01*
G01X3791067Y-5066047D01*
G01X3798263Y-5066470D01*
G01X3804190Y-5067317D01*
G01X3808423Y-5068587D01*
G01X3813503Y-5070280D01*
G01X3816890Y-5071973D01*
G01X3819853Y-5073667D01*
G01X3822393Y-5075360D01*
G01X3824510Y-5077053D01*
G01X3828743Y-5081287D01*
G01X3831283Y-5084250D01*
G01X3835517Y-5090177D01*
G01X3837633Y-5094410D01*
G01X3839327Y-5098643D01*
G01X3841020Y-5103723D01*
G01X3842290Y-5110497D01*
G01X3843137Y-5117270D01*
G01X3843560Y-5142670D01*
G01X3843137Y-5166377D01*
G01X3842290Y-5173997D01*
G01X3841443Y-5177383D01*
G01X3840173Y-5181617D01*
G01X3838480Y-5185850D01*
G01X3836787Y-5189237D01*
G01X3835093Y-5192200D01*
G01X3832553Y-5196010D01*
G01X3830013Y-5199397D01*
G01X3825780Y-5203630D01*
G01X3823240Y-5205747D01*
G01X3819853Y-5207863D01*
G01X3816043Y-5209980D01*
G01X3812233Y-5211673D01*
G01X3808000Y-5212943D01*
G37*
G36*
G01X3943467Y-5211250D02*
G01X3940927Y-5212943D01*
G01X3937540Y-5214213D01*
G01X3933730Y-5215483D01*
G01X3929497Y-5215907D01*
G01X3926110Y-5215483D01*
G01X3922300Y-5214637D01*
G01X3917643Y-5212943D01*
G01X3914257Y-5210827D01*
G01X3911717Y-5207863D01*
G01X3909600Y-5204053D01*
G01X3908330Y-5199397D01*
G01X3907483Y-5194317D01*
G01X3907483Y-5190930D01*
G01X3908330Y-5187120D01*
G01X3910023Y-5182463D01*
G01X3912140Y-5179077D01*
G01X3915103Y-5176537D01*
G01X3919337Y-5174420D01*
G01X3923570Y-5173150D01*
G01X3927803Y-5172303D01*
G01X3931190Y-5172303D01*
G01X3934153Y-5172727D01*
G01X3937540Y-5173573D01*
G01X3940503Y-5174843D01*
G01X3943890Y-5176960D01*
G01X3946853Y-5180770D01*
G01X3948547Y-5184157D01*
G01X3949817Y-5188390D01*
G01X3950663Y-5193470D01*
G01X3950663Y-5196857D01*
G01X3950240Y-5199820D01*
G01X3949393Y-5203207D01*
G01X3947700Y-5206593D01*
G01X3945583Y-5209133D01*
G01X3943467Y-5211250D01*
G37*
G36*
G01X4113647Y-5027947D02*
G01X4077240Y-5027947D01*
G01X4077240Y-5193893D01*
G01X4117880Y-5193893D01*
G01X4117880Y-5213367D01*
G01X4019667Y-5213367D01*
G01X4019667Y-5193893D01*
G01X4056073Y-5193893D01*
G01X4056073Y-5008473D01*
G01X4113647Y-5008473D01*
G01X4113647Y-5027947D01*
G37*
G36*
G01X4253347Y-5088060D02*
G01X4216940Y-5088060D01*
G01X4216940Y-5193893D01*
G01X4257580Y-5193893D01*
G01X4257580Y-5213367D01*
G01X4159367Y-5213367D01*
G01X4159367Y-5193893D01*
G01X4195773Y-5193893D01*
G01X4195773Y-5068587D01*
G01X4253347Y-5068587D01*
G01X4253347Y-5088060D01*
G37*
G36*
G01X4373997Y-5213790D02*
G01X4369763Y-5214637D01*
G01X4366377Y-5215060D01*
G01X4363837Y-5215483D01*
G01X4360873Y-5215907D01*
G01X4349443Y-5214637D01*
G01X4346057Y-5213790D01*
G01X4342247Y-5212520D01*
G01X4338437Y-5210827D01*
G01X4334203Y-5208287D01*
G01X4330817Y-5205747D01*
G01X4324467Y-5199397D01*
G01X4322350Y-5196433D01*
G01X4320233Y-5192623D01*
G01X4319387Y-5191142D01*
G01X4318540Y-5190930D01*
G01X4317693Y-5202360D01*
G01X4317693Y-5213367D01*
G01X4296527Y-5213367D01*
G01X4296527Y-5159603D01*
G01X4296621Y-5147327D01*
G01X4317693Y-5147327D01*
G01X4317693Y-5156217D01*
G01X4318117Y-5166377D01*
G01X4318963Y-5173150D01*
G01X4320233Y-5176960D01*
G01X4321927Y-5180770D01*
G01X4323620Y-5183310D01*
G01X4326160Y-5186697D01*
G01X4329123Y-5189237D01*
G01X4331240Y-5190507D01*
G01X4334203Y-5192200D01*
G01X4338013Y-5193893D01*
G01X4338013Y-5193893D01*
G01X4343517Y-5195163D01*
G01X4350290Y-5196010D01*
G01X4354947Y-5196010D01*
G01X4359603Y-5195587D01*
G01X4364260Y-5194740D01*
G01X4367647Y-5193470D01*
G01X4371457Y-5191353D01*
G01X4374420Y-5188390D01*
G01X4376113Y-5186273D01*
G01X4377807Y-5183310D01*
G01X4379500Y-5178653D01*
G01X4380347Y-5171033D01*
G01X4379923Y-5164683D01*
G01X4378653Y-5161297D01*
G01X4376537Y-5158333D01*
G01X4374420Y-5156217D01*
G01X4372303Y-5154523D01*
G01X4366377Y-5151560D01*
G01X4361720Y-5149867D01*
G01X4357487Y-5149020D01*
G01X4354523Y-5148597D01*
G01X4346903Y-5147750D01*
G01X4331663Y-5147327D01*
G01X4317693Y-5147327D01*
G01X4296621Y-5147327D01*
G01X4296950Y-5104570D01*
G01X4297797Y-5100337D01*
G01X4299067Y-5095680D01*
G01X4300760Y-5091447D01*
G01X4302453Y-5088060D01*
G01X4304570Y-5085097D01*
G01X4307110Y-5082133D01*
G01X4311343Y-5077900D01*
G01X4314730Y-5075360D01*
G01X4318963Y-5072820D01*
G01X4322350Y-5071127D01*
G01X4326160Y-5069433D01*
G01X4330817Y-5068163D01*
G01X4335050Y-5067317D01*
G01X4340977Y-5066470D01*
G01X4349443Y-5066047D01*
G01X4355370Y-5066470D01*
G01X4363837Y-5067317D01*
G01X4367223Y-5068163D01*
G01X4371033Y-5069433D01*
G01X4374420Y-5070703D01*
G01X4377383Y-5071973D01*
G01X4380347Y-5073667D01*
G01X4384157Y-5076207D01*
G01X4387543Y-5078747D01*
G01X4389660Y-5080863D01*
G01X4392200Y-5084250D01*
G01X4394740Y-5088060D01*
G01X4396433Y-5091023D01*
G01X4397703Y-5094410D01*
G01X4399397Y-5101183D01*
G01X4400243Y-5105417D01*
G01X4400243Y-5108380D01*
G01X4389237Y-5109227D01*
G01X4378653Y-5109227D01*
G01X4378653Y-5106263D01*
G01X4377807Y-5101607D01*
G01X4376113Y-5097797D01*
G01X4373997Y-5094833D01*
G01X4371880Y-5092717D01*
G01X4368917Y-5090600D01*
G01X4365953Y-5088907D01*
G01X4362990Y-5087637D01*
G01X4359603Y-5086790D01*
G01X4354523Y-5085943D01*
G01X4346480Y-5085520D01*
G01X4340977Y-5085943D01*
G01X4337590Y-5086790D01*
G01X4333780Y-5088060D01*
G01X4330393Y-5089753D01*
G01X4326583Y-5092293D01*
G01X4323620Y-5095680D01*
G01X4321927Y-5098643D01*
G01X4320233Y-5102030D01*
G01X4318963Y-5107110D01*
G01X4318117Y-5113037D01*
G01X4317693Y-5121927D01*
G01X4317693Y-5127853D01*
G01X4333357Y-5127853D01*
G01X4350290Y-5128277D01*
G01X4358757Y-5129123D01*
G01X4367223Y-5130817D01*
G01X4371033Y-5132087D01*
G01X4375267Y-5133780D01*
G01X4379077Y-5135473D01*
G01X4382887Y-5137590D01*
G01X4385850Y-5139707D01*
G01X4389237Y-5142247D01*
G01X4392200Y-5145210D01*
G01X4393893Y-5147327D01*
G01X4395587Y-5149867D01*
G01X4397280Y-5152830D01*
G01X4398973Y-5156640D01*
G01X4400243Y-5160450D01*
G01X4401090Y-5164683D01*
G01X4401937Y-5169763D01*
G01X4402360Y-5175267D01*
G01X4401937Y-5179923D01*
G01X4401090Y-5185850D01*
G01X4399820Y-5190083D01*
G01X4398127Y-5195163D01*
G01X4396010Y-5198973D01*
G01X4393893Y-5201937D01*
G01X4389660Y-5206170D01*
G01X4386697Y-5208710D01*
G01X4382463Y-5210827D01*
G01X4378653Y-5212520D01*
G01X4373997Y-5213790D01*
G37*
G36*
G01X4522375Y-5077371D02*
G01X4522587Y-5073667D01*
G01X4522587Y-5068587D01*
G01X4544600Y-5068587D01*
G01X4544600Y-5213367D01*
G01X4522587Y-5213367D01*
G01X4522587Y-5155370D01*
G01X4522163Y-5096103D01*
G01X4520893Y-5092717D01*
G01X4518353Y-5088907D01*
G01X4514543Y-5086367D01*
G01X4509887Y-5085520D01*
G01X4505653Y-5086790D01*
G01X4503113Y-5088907D01*
G01X4501420Y-5091447D01*
G01X4499727Y-5095680D01*
G01X4498880Y-5155793D01*
G01X4498880Y-5213367D01*
G01X4476867Y-5213367D01*
G01X4476867Y-5154947D01*
G01X4476443Y-5095257D01*
G01X4475173Y-5091870D01*
G01X4473057Y-5088907D01*
G01X4470517Y-5087213D01*
G01X4467130Y-5085943D01*
G01X4462473Y-5085943D01*
G01X4459087Y-5087637D01*
G01X4456970Y-5089753D01*
G01X4455277Y-5092293D01*
G01X4454430Y-5095257D01*
G01X4453583Y-5098643D01*
G01X4453160Y-5157063D01*
G01X4453160Y-5213367D01*
G01X4431147Y-5213367D01*
G01X4431147Y-5157910D01*
G01X4431570Y-5101183D01*
G01X4432417Y-5091870D01*
G01X4433263Y-5088060D01*
G01X4434533Y-5083827D01*
G01X4435803Y-5080440D01*
G01X4437497Y-5077053D01*
G01X4439613Y-5074090D01*
G01X4441730Y-5071973D01*
G01X4444693Y-5069857D01*
G01X4448927Y-5067740D01*
G01X4454430Y-5066470D01*
G01X4459087Y-5066047D01*
G01X4462050Y-5066470D01*
G01X4465437Y-5067740D01*
G01X4468400Y-5069433D01*
G01X4470517Y-5071127D01*
G01X4473057Y-5074090D01*
G01X4475173Y-5077477D01*
G01X4476867Y-5080863D01*
G01X4478560Y-5083827D01*
G01X4479407Y-5084038D01*
G01X4480253Y-5082980D01*
G01X4481947Y-5079170D01*
G01X4484487Y-5074937D01*
G01X4487450Y-5071973D01*
G01X4489567Y-5070280D01*
G01X4492530Y-5068587D01*
G01X4495917Y-5067317D01*
G01X4499303Y-5066470D01*
G01X4503960Y-5066047D01*
G01X4507770Y-5066470D01*
G01X4511157Y-5067740D01*
G01X4514120Y-5069433D01*
G01X4516237Y-5071127D01*
G01X4518353Y-5073667D01*
G01X4520047Y-5076630D01*
G01X4521740Y-5078323D01*
G01X4522375Y-5077371D01*
G37*
G36*
G01X4643237Y-5273903D02*
G01X4639850Y-5274750D01*
G01X4635193Y-5275173D01*
G01X4632230Y-5275597D01*
G01X4628843Y-5276020D01*
G01X4616143Y-5274750D01*
G01X4612333Y-5273903D01*
G01X4608100Y-5272633D01*
G01X4604290Y-5270940D01*
G01X4600903Y-5269247D01*
G01X4597517Y-5267130D01*
G01X4594553Y-5264590D01*
G01X4588203Y-5258240D01*
G01X4586087Y-5255700D01*
G01X4584393Y-5252737D01*
G01X4581007Y-5245963D01*
G01X4579737Y-5242577D01*
G01X4578467Y-5238767D01*
G01X4577620Y-5235380D01*
G01X4576350Y-5226490D01*
G01X4575927Y-5146903D01*
G01X4575927Y-5141823D01*
G01X4597093Y-5141823D01*
G01X4597517Y-5162143D01*
G01X4598363Y-5171457D01*
G01X4599633Y-5175690D01*
G01X4601327Y-5179923D01*
G01X4603020Y-5183310D01*
G01X4605137Y-5186273D01*
G01X4609370Y-5190507D01*
G01X4612333Y-5192623D01*
G01X4616143Y-5194317D01*
G01X4616143Y-5194317D01*
G01X4619530Y-5195163D01*
G01X4624610Y-5196010D01*
G01X4630113Y-5196010D01*
G01X4634347Y-5195587D01*
G01X4638580Y-5194740D01*
G01X4641967Y-5193470D01*
G01X4645777Y-5191353D01*
G01X4649163Y-5188813D01*
G01X4651280Y-5186273D01*
G01X4652973Y-5183733D01*
G01X4655090Y-5180770D01*
G01X4657207Y-5176113D01*
G01X4658477Y-5171457D01*
G01X4659323Y-5166377D01*
G01X4659747Y-5138013D01*
G01X4659323Y-5111343D01*
G01X4658477Y-5107957D01*
G01X4657207Y-5104570D01*
G01X4655513Y-5101183D01*
G01X4652973Y-5096950D01*
G01X4647893Y-5091870D01*
G01X4645777Y-5090177D01*
G01X4643237Y-5088907D01*
G01X4639850Y-5087637D01*
G01X4633077Y-5085943D01*
G01X4626303Y-5085520D01*
G01X4620377Y-5085943D01*
G01X4616990Y-5086790D01*
G01X4613603Y-5088060D01*
G01X4611063Y-5089753D01*
G01X4608100Y-5092293D01*
G01X4605560Y-5095257D01*
G01X4603443Y-5098220D01*
G01X4601327Y-5102030D01*
G01X4599633Y-5106687D01*
G01X4598363Y-5113037D01*
G01X4597940Y-5118540D01*
G01X4597517Y-5121503D01*
G01X4597093Y-5141823D01*
G01X4575927Y-5141823D01*
G01X4575927Y-5068587D01*
G01X4597093Y-5068587D01*
G01X4597093Y-5080017D01*
G01X4597305Y-5088483D01*
G01X4597940Y-5091023D01*
G01X4599633Y-5088483D01*
G01X4601750Y-5084673D01*
G01X4603867Y-5081710D01*
G01X4606407Y-5078323D01*
G01X4609370Y-5075360D01*
G01X4612333Y-5073243D01*
G01X4615720Y-5071127D01*
G01X4619107Y-5069433D01*
G01X4623340Y-5068163D01*
G01X4627150Y-5067317D01*
G01X4631383Y-5066470D01*
G01X4638157Y-5066047D01*
G01X4643237Y-5066470D01*
G01X4647047Y-5067317D01*
G01X4651280Y-5068587D01*
G01X4654667Y-5069857D01*
G01X4658053Y-5071550D01*
G01X4661440Y-5073667D01*
G01X4663980Y-5075783D01*
G01X4668213Y-5080017D01*
G01X4669907Y-5082133D01*
G01X4672023Y-5085097D01*
G01X4674563Y-5089330D01*
G01X4676257Y-5093140D01*
G01X4677527Y-5096527D01*
G01X4678797Y-5100760D01*
G01X4679643Y-5104570D01*
G01X4680490Y-5109650D01*
G01X4680913Y-5115577D01*
G01X4681337Y-5118963D01*
G01X4681760Y-5141823D01*
G01X4681337Y-5164683D01*
G01X4680490Y-5174843D01*
G01X4679643Y-5178653D01*
G01X4678373Y-5182887D01*
G01X4677103Y-5186697D01*
G01X4675833Y-5190083D01*
G01X4674140Y-5193470D01*
G01X4672447Y-5196433D01*
G01X4670330Y-5199397D01*
G01X4667790Y-5202360D01*
G01X4665673Y-5204477D01*
G01X4662710Y-5207017D01*
G01X4659323Y-5209133D01*
G01X4656360Y-5210827D01*
G01X4652127Y-5212520D01*
G01X4648317Y-5213790D01*
G01X4644083Y-5214637D01*
G01X4637310Y-5215483D01*
G01X4632230Y-5215483D01*
G01X4625457Y-5214637D01*
G01X4621647Y-5213367D01*
G01X4617413Y-5211673D01*
G01X4614450Y-5209980D01*
G01X4611910Y-5208287D01*
G01X4607677Y-5204053D01*
G01X4605137Y-5201090D01*
G01X4603020Y-5198127D01*
G01X4601327Y-5195163D01*
G01X4599633Y-5191777D01*
G01X4597940Y-5190083D01*
G01X4597305Y-5193682D01*
G01X4597093Y-5205323D01*
G01X4597517Y-5222257D01*
G01X4598363Y-5231570D01*
G01X4599633Y-5235380D01*
G01X4601327Y-5240037D01*
G01X4603867Y-5244270D01*
G01X4606407Y-5247657D01*
G01X4608523Y-5249773D01*
G01X4611487Y-5251890D01*
G01X4615720Y-5254007D01*
G01X4620377Y-5255277D01*
G01X4626303Y-5256123D01*
G01X4633077Y-5256123D01*
G01X4638580Y-5255277D01*
G01X4642813Y-5254007D01*
G01X4646200Y-5252313D01*
G01X4650010Y-5249773D01*
G01X4652973Y-5246387D01*
G01X4654667Y-5243423D01*
G01X4656360Y-5240037D01*
G01X4657630Y-5234957D01*
G01X4658053Y-5231993D01*
G01X4680067Y-5231993D01*
G01X4679643Y-5235803D01*
G01X4678797Y-5240883D01*
G01X4677950Y-5244270D01*
G01X4676680Y-5247657D01*
G01X4675410Y-5250620D01*
G01X4674140Y-5253160D01*
G01X4672447Y-5255700D01*
G01X4670330Y-5258240D01*
G01X4668637Y-5260357D01*
G01X4666097Y-5262897D01*
G01X4663133Y-5265437D01*
G01X4661017Y-5267130D01*
G01X4655090Y-5270093D01*
G01X4651280Y-5271787D01*
G01X4647047Y-5273057D01*
G01X4643237Y-5273903D01*
G37*
G36*
G01X5202037Y-5273903D02*
G01X5198650Y-5274750D01*
G01X5193993Y-5275173D01*
G01X5191030Y-5275597D01*
G01X5187643Y-5276020D01*
G01X5174943Y-5274750D01*
G01X5171133Y-5273903D01*
G01X5166900Y-5272633D01*
G01X5163090Y-5270940D01*
G01X5159703Y-5269247D01*
G01X5156317Y-5267130D01*
G01X5153353Y-5264590D01*
G01X5147003Y-5258240D01*
G01X5144887Y-5255700D01*
G01X5143193Y-5252737D01*
G01X5139807Y-5245963D01*
G01X5138537Y-5242577D01*
G01X5137267Y-5238767D01*
G01X5136420Y-5235380D01*
G01X5135150Y-5226490D01*
G01X5134727Y-5146903D01*
G01X5134727Y-5141823D01*
G01X5155893Y-5141823D01*
G01X5156317Y-5162143D01*
G01X5157163Y-5171457D01*
G01X5158433Y-5175690D01*
G01X5160127Y-5179923D01*
G01X5161820Y-5183310D01*
G01X5163937Y-5186273D01*
G01X5168170Y-5190507D01*
G01X5171133Y-5192623D01*
G01X5174943Y-5194317D01*
G01X5174943Y-5194317D01*
G01X5178330Y-5195163D01*
G01X5183410Y-5196010D01*
G01X5188913Y-5196010D01*
G01X5193147Y-5195587D01*
G01X5197380Y-5194740D01*
G01X5200767Y-5193470D01*
G01X5204577Y-5191353D01*
G01X5207963Y-5188813D01*
G01X5210080Y-5186273D01*
G01X5211773Y-5183733D01*
G01X5213890Y-5180770D01*
G01X5216007Y-5176113D01*
G01X5217277Y-5171457D01*
G01X5218123Y-5166377D01*
G01X5218547Y-5138013D01*
G01X5218123Y-5111343D01*
G01X5217277Y-5107957D01*
G01X5216007Y-5104570D01*
G01X5214313Y-5101183D01*
G01X5211773Y-5096950D01*
G01X5206693Y-5091870D01*
G01X5204577Y-5090177D01*
G01X5202037Y-5088907D01*
G01X5198650Y-5087637D01*
G01X5191877Y-5085943D01*
G01X5185103Y-5085520D01*
G01X5179177Y-5085943D01*
G01X5175790Y-5086790D01*
G01X5172403Y-5088060D01*
G01X5169863Y-5089753D01*
G01X5166900Y-5092293D01*
G01X5164360Y-5095257D01*
G01X5162243Y-5098220D01*
G01X5160127Y-5102030D01*
G01X5158433Y-5106687D01*
G01X5157163Y-5113037D01*
G01X5156740Y-5118540D01*
G01X5156317Y-5121503D01*
G01X5155893Y-5141823D01*
G01X5134727Y-5141823D01*
G01X5134727Y-5068587D01*
G01X5155893Y-5068587D01*
G01X5155893Y-5080017D01*
G01X5156105Y-5088483D01*
G01X5156740Y-5091023D01*
G01X5158433Y-5088483D01*
G01X5160550Y-5084673D01*
G01X5162667Y-5081710D01*
G01X5165207Y-5078323D01*
G01X5168170Y-5075360D01*
G01X5171133Y-5073243D01*
G01X5174520Y-5071127D01*
G01X5177907Y-5069433D01*
G01X5182140Y-5068163D01*
G01X5185950Y-5067317D01*
G01X5190183Y-5066470D01*
G01X5196957Y-5066047D01*
G01X5202037Y-5066470D01*
G01X5205847Y-5067317D01*
G01X5210080Y-5068587D01*
G01X5213467Y-5069857D01*
G01X5216853Y-5071550D01*
G01X5220240Y-5073667D01*
G01X5222780Y-5075783D01*
G01X5227013Y-5080017D01*
G01X5228707Y-5082133D01*
G01X5230823Y-5085097D01*
G01X5233363Y-5089330D01*
G01X5235057Y-5093140D01*
G01X5236327Y-5096527D01*
G01X5237597Y-5100760D01*
G01X5238443Y-5104570D01*
G01X5239290Y-5109650D01*
G01X5239713Y-5115577D01*
G01X5240137Y-5118963D01*
G01X5240560Y-5141823D01*
G01X5240137Y-5164683D01*
G01X5239290Y-5174843D01*
G01X5238443Y-5178653D01*
G01X5237173Y-5182887D01*
G01X5235903Y-5186697D01*
G01X5234633Y-5190083D01*
G01X5232940Y-5193470D01*
G01X5231247Y-5196433D01*
G01X5229130Y-5199397D01*
G01X5226590Y-5202360D01*
G01X5224473Y-5204477D01*
G01X5221510Y-5207017D01*
G01X5218123Y-5209133D01*
G01X5215160Y-5210827D01*
G01X5210927Y-5212520D01*
G01X5207117Y-5213790D01*
G01X5202883Y-5214637D01*
G01X5196110Y-5215483D01*
G01X5191030Y-5215483D01*
G01X5184257Y-5214637D01*
G01X5180447Y-5213367D01*
G01X5176213Y-5211673D01*
G01X5173250Y-5209980D01*
G01X5170710Y-5208287D01*
G01X5166477Y-5204053D01*
G01X5163937Y-5201090D01*
G01X5161820Y-5198127D01*
G01X5160127Y-5195163D01*
G01X5158433Y-5191777D01*
G01X5156740Y-5190083D01*
G01X5156105Y-5193682D01*
G01X5155893Y-5205323D01*
G01X5156317Y-5222257D01*
G01X5157163Y-5231570D01*
G01X5158433Y-5235380D01*
G01X5160127Y-5240037D01*
G01X5162667Y-5244270D01*
G01X5165207Y-5247657D01*
G01X5167323Y-5249773D01*
G01X5170287Y-5251890D01*
G01X5174520Y-5254007D01*
G01X5179177Y-5255277D01*
G01X5185103Y-5256123D01*
G01X5191877Y-5256123D01*
G01X5197380Y-5255277D01*
G01X5201613Y-5254007D01*
G01X5205000Y-5252313D01*
G01X5208810Y-5249773D01*
G01X5211773Y-5246387D01*
G01X5213467Y-5243423D01*
G01X5215160Y-5240037D01*
G01X5216430Y-5234957D01*
G01X5216853Y-5231993D01*
G01X5238867Y-5231993D01*
G01X5238443Y-5235803D01*
G01X5237597Y-5240883D01*
G01X5236750Y-5244270D01*
G01X5235480Y-5247657D01*
G01X5234210Y-5250620D01*
G01X5232940Y-5253160D01*
G01X5231247Y-5255700D01*
G01X5229130Y-5258240D01*
G01X5227437Y-5260357D01*
G01X5224897Y-5262897D01*
G01X5221933Y-5265437D01*
G01X5219817Y-5267130D01*
G01X5213890Y-5270093D01*
G01X5210080Y-5271787D01*
G01X5205847Y-5273057D01*
G01X5202037Y-5273903D01*
G37*
G36*
G01X5356130Y-5091023D02*
G01X5356553Y-5079170D01*
G01X5356553Y-5068587D01*
G01X5377720Y-5068587D01*
G01X5377720Y-5213367D01*
G01X5356553Y-5213367D01*
G01X5356553Y-5166800D01*
G01X5356130Y-5118963D01*
G01X5355283Y-5109650D01*
G01X5354013Y-5105840D01*
G01X5352320Y-5101183D01*
G01X5350627Y-5098220D01*
G01X5348933Y-5096103D01*
G01X5345970Y-5093140D01*
G01X5343007Y-5090600D01*
G01X5340467Y-5088907D01*
G01X5336233Y-5087213D01*
G01X5330730Y-5085943D01*
G01X5323957Y-5085520D01*
G01X5318877Y-5085943D01*
G01X5315913Y-5086790D01*
G01X5312103Y-5088483D01*
G01X5308717Y-5090600D01*
G01X5304483Y-5094833D01*
G01X5302367Y-5097373D01*
G01X5300673Y-5100337D01*
G01X5298980Y-5104147D01*
G01X5297710Y-5108803D01*
G01X5296863Y-5113037D01*
G01X5296440Y-5117693D01*
G01X5296017Y-5121503D01*
G01X5295593Y-5168070D01*
G01X5295593Y-5213367D01*
G01X5274427Y-5213367D01*
G01X5274427Y-5162143D01*
G01X5274850Y-5109650D01*
G01X5275697Y-5103723D01*
G01X5276967Y-5099490D01*
G01X5278660Y-5093987D01*
G01X5280353Y-5090177D01*
G01X5282047Y-5086790D01*
G01X5283740Y-5083827D01*
G01X5285857Y-5080863D01*
G01X5288397Y-5077900D01*
G01X5290513Y-5075783D01*
G01X5293053Y-5073667D01*
G01X5296440Y-5071550D01*
G01X5299827Y-5069857D01*
G01X5302790Y-5068587D01*
G01X5305753Y-5067740D01*
G01X5308717Y-5067317D01*
G01X5312950Y-5066470D01*
G01X5319723Y-5066047D01*
G01X5324803Y-5066470D01*
G01X5328613Y-5067317D01*
G01X5332423Y-5068587D01*
G01X5335387Y-5069857D01*
G01X5338773Y-5071550D01*
G01X5341737Y-5073667D01*
G01X5347240Y-5079170D01*
G01X5348933Y-5081287D01*
G01X5351050Y-5084250D01*
G01X5353167Y-5087637D01*
G01X5354860Y-5090600D01*
G01X5355601Y-5091552D01*
G01X5356130Y-5091023D01*
G37*
G36*
G01X5481013Y-5213790D02*
G01X5476357Y-5214637D01*
G01X5472970Y-5215060D01*
G01X5470430Y-5215483D01*
G01X5466197Y-5215907D01*
G01X5461117Y-5215483D01*
G01X5453497Y-5214637D01*
G01X5445877Y-5212943D01*
G01X5442490Y-5211673D01*
G01X5439103Y-5209980D01*
G01X5436140Y-5208287D01*
G01X5432753Y-5206170D01*
G01X5429790Y-5204053D01*
G01X5425557Y-5199820D01*
G01X5422170Y-5195587D01*
G01X5420477Y-5193047D01*
G01X5419207Y-5190507D01*
G01X5417513Y-5187543D01*
G01X5415820Y-5183310D01*
G01X5414127Y-5178230D01*
G01X5412857Y-5171457D01*
G01X5412010Y-5164683D01*
G01X5411642Y-5142247D01*
G01X5433600Y-5142247D01*
G01X5434023Y-5169763D01*
G01X5434870Y-5173573D01*
G01X5436140Y-5177383D01*
G01X5437833Y-5180770D01*
G01X5439527Y-5183733D01*
G01X5441220Y-5185850D01*
G01X5443337Y-5187967D01*
G01X5445453Y-5189660D01*
G01X5448417Y-5191777D01*
G01X5453073Y-5193893D01*
G01X5453073Y-5193893D01*
G01X5457730Y-5195163D01*
G01X5462810Y-5196010D01*
G01X5467890Y-5196010D01*
G01X5472970Y-5195587D01*
G01X5477627Y-5194740D01*
G01X5481437Y-5193047D01*
G01X5484400Y-5191353D01*
G01X5486517Y-5189660D01*
G01X5488633Y-5187543D01*
G01X5490327Y-5185427D01*
G01X5492443Y-5182463D01*
G01X5494560Y-5178230D01*
G01X5496253Y-5173573D01*
G01X5497523Y-5167223D01*
G01X5497947Y-5138437D01*
G01X5497523Y-5112190D01*
G01X5496677Y-5108380D01*
G01X5495407Y-5104570D01*
G01X5493713Y-5101183D01*
G01X5492020Y-5098220D01*
G01X5490327Y-5096103D01*
G01X5486093Y-5091870D01*
G01X5483130Y-5089753D01*
G01X5479743Y-5088060D01*
G01X5475510Y-5086790D01*
G01X5471277Y-5085943D01*
G01X5464927Y-5085520D01*
G01X5458577Y-5085943D01*
G01X5455190Y-5086790D01*
G01X5451803Y-5088060D01*
G01X5448840Y-5089753D01*
G01X5445030Y-5092293D01*
G01X5442067Y-5095257D01*
G01X5439950Y-5098220D01*
G01X5437833Y-5102030D01*
G01X5436140Y-5105840D01*
G01X5434870Y-5110497D01*
G01X5434023Y-5114730D01*
G01X5433600Y-5142247D01*
G01X5411642Y-5142247D01*
G01X5411587Y-5138860D01*
G01X5412010Y-5114730D01*
G01X5412857Y-5107957D01*
G01X5413703Y-5104147D01*
G01X5414973Y-5099913D01*
G01X5416243Y-5096527D01*
G01X5417513Y-5093563D01*
G01X5419207Y-5090600D01*
G01X5421747Y-5086790D01*
G01X5424287Y-5083403D01*
G01X5428520Y-5079170D01*
G01X5431483Y-5076630D01*
G01X5435293Y-5074090D01*
G01X5439103Y-5071973D01*
G01X5442490Y-5070280D01*
G01X5446300Y-5069010D01*
G01X5450110Y-5068163D01*
G01X5454343Y-5067317D01*
G01X5459423Y-5066470D01*
G01X5467467Y-5066047D01*
G01X5474663Y-5066470D01*
G01X5480590Y-5067317D01*
G01X5484823Y-5068587D01*
G01X5489903Y-5070280D01*
G01X5493290Y-5071973D01*
G01X5496677Y-5074090D01*
G01X5500910Y-5077053D01*
G01X5505990Y-5082133D01*
G01X5508107Y-5084673D01*
G01X5509800Y-5087213D01*
G01X5511917Y-5090177D01*
G01X5514033Y-5094410D01*
G01X5515727Y-5098643D01*
G01X5517420Y-5103723D01*
G01X5518690Y-5110497D01*
G01X5519537Y-5117270D01*
G01X5519960Y-5143093D01*
G01X5519537Y-5167223D01*
G01X5518690Y-5174843D01*
G01X5517420Y-5179077D01*
G01X5515727Y-5184580D01*
G01X5514033Y-5188390D01*
G01X5512340Y-5191777D01*
G01X5510223Y-5194740D01*
G01X5505990Y-5199820D01*
G01X5501757Y-5204053D01*
G01X5498793Y-5206170D01*
G01X5494983Y-5208710D01*
G01X5490327Y-5210827D01*
G01X5486093Y-5212520D01*
G01X5481013Y-5213790D01*
G37*
G36*
G01X5620713Y-5213790D02*
G01X5616057Y-5214637D01*
G01X5612247Y-5215060D01*
G01X5609283Y-5215483D01*
G01X5604203Y-5215907D01*
G01X5598277Y-5215483D01*
G01X5590657Y-5214637D01*
G01X5586847Y-5213790D01*
G01X5582613Y-5212520D01*
G01X5579227Y-5211250D01*
G01X5576263Y-5209980D01*
G01X5573300Y-5208287D01*
G01X5569490Y-5205747D01*
G01X5566103Y-5203207D01*
G01X5563987Y-5201090D01*
G01X5558907Y-5194317D01*
G01X5557213Y-5191353D01*
G01X5555520Y-5187543D01*
G01X5554250Y-5184157D01*
G01X5552980Y-5179923D01*
G01X5552133Y-5175267D01*
G01X5554779Y-5173997D01*
G01X5562717Y-5173573D01*
G01X5573300Y-5173573D01*
G01X5573723Y-5176537D01*
G01X5574993Y-5180770D01*
G01X5576687Y-5183733D01*
G01X5578380Y-5186273D01*
G01X5580073Y-5187967D01*
G01X5582190Y-5189660D01*
G01X5584730Y-5191353D01*
G01X5588117Y-5193047D01*
G01X5593197Y-5194740D01*
G01X5598277Y-5195587D01*
G01X5601663Y-5196010D01*
G01X5605897Y-5196433D01*
G01X5610130Y-5196010D01*
G01X5613093Y-5195587D01*
G01X5616480Y-5194740D01*
G01X5619867Y-5193470D01*
G01X5622407Y-5192200D01*
G01X5624523Y-5190507D01*
G01X5627063Y-5188390D01*
G01X5629180Y-5185850D01*
G01X5630873Y-5183733D01*
G01X5632990Y-5180770D01*
G01X5634683Y-5176960D01*
G01X5635953Y-5173573D01*
G01X5636800Y-5170187D01*
G01X5637223Y-5167223D01*
G01X5637647Y-5158333D01*
G01X5637647Y-5150713D01*
G01X5551287Y-5150713D01*
G01X5551287Y-5133357D01*
G01X5551508Y-5123620D01*
G01X5573300Y-5123620D01*
G01X5573300Y-5131240D01*
G01X5605050Y-5131240D01*
G01X5637223Y-5130817D01*
G01X5637647Y-5121927D01*
G01X5637223Y-5112190D01*
G01X5636377Y-5108380D01*
G01X5635107Y-5104570D01*
G01X5633413Y-5101183D01*
G01X5631720Y-5098220D01*
G01X5630027Y-5096103D01*
G01X5625793Y-5091870D01*
G01X5622830Y-5089753D01*
G01X5619443Y-5088060D01*
G01X5615210Y-5086790D01*
G01X5610977Y-5085943D01*
G01X5604627Y-5085520D01*
G01X5598277Y-5085943D01*
G01X5594890Y-5086790D01*
G01X5591503Y-5088060D01*
G01X5588540Y-5089753D01*
G01X5584730Y-5092293D01*
G01X5581767Y-5095257D01*
G01X5579650Y-5098220D01*
G01X5577533Y-5102030D01*
G01X5575840Y-5105840D01*
G01X5574570Y-5110497D01*
G01X5573723Y-5114730D01*
G01X5573300Y-5123620D01*
G01X5573300Y-5123620D01*
G01X5551508Y-5123620D01*
G01X5551710Y-5114730D01*
G01X5552557Y-5107957D01*
G01X5553403Y-5104147D01*
G01X5554673Y-5099913D01*
G01X5555943Y-5096527D01*
G01X5557213Y-5093563D01*
G01X5558907Y-5090600D01*
G01X5561447Y-5086790D01*
G01X5563987Y-5083403D01*
G01X5568220Y-5079170D01*
G01X5571183Y-5076630D01*
G01X5574993Y-5074090D01*
G01X5578803Y-5071973D01*
G01X5582190Y-5070280D01*
G01X5586000Y-5069010D01*
G01X5589810Y-5068163D01*
G01X5594043Y-5067317D01*
G01X5599123Y-5066470D01*
G01X5607167Y-5066047D01*
G01X5614363Y-5066470D01*
G01X5620290Y-5067317D01*
G01X5624523Y-5068587D01*
G01X5629603Y-5070280D01*
G01X5632990Y-5071973D01*
G01X5636377Y-5074090D01*
G01X5640610Y-5077053D01*
G01X5645690Y-5082133D01*
G01X5647807Y-5084673D01*
G01X5649500Y-5087213D01*
G01X5651617Y-5090177D01*
G01X5653733Y-5094410D01*
G01X5655427Y-5098643D01*
G01X5657120Y-5103723D01*
G01X5658390Y-5110497D01*
G01X5659237Y-5117270D01*
G01X5659660Y-5143093D01*
G01X5659237Y-5167223D01*
G01X5658390Y-5174843D01*
G01X5657120Y-5179077D01*
G01X5655427Y-5184157D01*
G01X5653733Y-5187967D01*
G01X5652040Y-5190930D01*
G01X5649923Y-5194317D01*
G01X5647807Y-5197280D01*
G01X5646113Y-5199397D01*
G01X5641880Y-5203630D01*
G01X5639763Y-5205323D01*
G01X5636800Y-5207017D01*
G01X5632990Y-5209557D01*
G01X5629180Y-5211250D01*
G01X5625793Y-5212520D01*
G01X5620713Y-5213790D01*
G37*
G36*
G01X5903500Y-5212943D02*
G01X5899690Y-5213790D01*
G01X5895457Y-5214637D01*
G01X5890800Y-5215483D01*
G01X5885297Y-5215907D01*
G01X5880217Y-5215483D01*
G01X5872597Y-5214637D01*
G01X5868787Y-5213790D01*
G01X5864553Y-5212520D01*
G01X5860320Y-5210827D01*
G01X5856087Y-5208710D01*
G01X5852277Y-5206170D01*
G01X5849313Y-5203630D01*
G01X5845080Y-5199397D01*
G01X5843387Y-5197280D01*
G01X5841270Y-5194317D01*
G01X5839153Y-5190930D01*
G01X5837460Y-5187543D01*
G01X5835767Y-5182887D01*
G01X5834497Y-5178230D01*
G01X5833650Y-5173997D01*
G01X5832803Y-5168917D01*
G01X5832803Y-5164683D01*
G01X5835661Y-5163731D01*
G01X5843387Y-5163413D01*
G01X5853547Y-5163413D01*
G01X5853970Y-5165530D01*
G01X5854393Y-5169763D01*
G01X5854817Y-5173150D01*
G01X5856087Y-5176960D01*
G01X5858203Y-5181617D01*
G01X5860320Y-5185003D01*
G01X5863283Y-5187967D01*
G01X5866247Y-5190507D01*
G01X5869210Y-5192200D01*
G01X5872597Y-5193893D01*
G01X5877677Y-5195163D01*
G01X5883603Y-5196010D01*
G01X5887413Y-5196433D01*
G01X5893340Y-5195587D01*
G01X5896727Y-5194740D01*
G01X5899690Y-5193470D01*
G01X5902230Y-5192200D01*
G01X5904770Y-5190507D01*
G01X5906887Y-5188390D01*
G01X5908580Y-5186273D01*
G01X5910697Y-5183310D01*
G01X5912813Y-5179923D01*
G01X5914083Y-5176960D01*
G01X5915353Y-5173573D01*
G01X5916200Y-5169763D01*
G01X5916623Y-5166377D01*
G01X5917047Y-5138860D01*
G01X5916623Y-5111343D01*
G01X5915353Y-5107110D01*
G01X5913660Y-5102877D01*
G01X5911967Y-5099490D01*
G01X5909850Y-5096527D01*
G01X5908157Y-5094410D01*
G01X5906040Y-5092293D01*
G01X5903500Y-5090600D01*
G01X5900537Y-5088907D01*
G01X5896727Y-5087213D01*
G01X5893340Y-5086367D01*
G01X5890377Y-5085943D01*
G01X5884450Y-5085520D01*
G01X5878523Y-5085943D01*
G01X5875137Y-5086790D01*
G01X5871327Y-5088060D01*
G01X5867940Y-5089753D01*
G01X5865400Y-5091870D01*
G01X5863283Y-5093563D01*
G01X5861167Y-5095680D01*
G01X5859473Y-5098220D01*
G01X5857780Y-5101183D01*
G01X5856087Y-5104993D01*
G01X5855240Y-5108380D01*
G01X5854817Y-5111343D01*
G01X5854393Y-5115153D01*
G01X5854393Y-5117693D01*
G01X5832380Y-5117693D01*
G01X5832380Y-5113883D01*
G01X5832803Y-5108803D01*
G01X5833650Y-5104570D01*
G01X5834920Y-5099913D01*
G01X5837460Y-5093140D01*
G01X5839577Y-5089330D01*
G01X5842540Y-5085097D01*
G01X5845080Y-5081710D01*
G01X5847197Y-5079593D01*
G01X5853970Y-5074513D01*
G01X5857357Y-5072397D01*
G01X5861167Y-5070703D01*
G01X5864130Y-5069433D01*
G01X5868363Y-5068163D01*
G01X5872597Y-5067317D01*
G01X5879370Y-5066470D01*
G01X5886567Y-5066047D01*
G01X5893763Y-5066470D01*
G01X5899690Y-5067317D01*
G01X5903923Y-5068587D01*
G01X5909003Y-5070280D01*
G01X5912390Y-5071973D01*
G01X5915353Y-5073667D01*
G01X5917893Y-5075360D01*
G01X5920010Y-5077053D01*
G01X5924243Y-5081287D01*
G01X5926783Y-5084250D01*
G01X5931017Y-5090177D01*
G01X5933133Y-5094410D01*
G01X5934827Y-5098643D01*
G01X5936520Y-5103723D01*
G01X5937790Y-5110497D01*
G01X5938637Y-5117270D01*
G01X5939060Y-5142670D01*
G01X5938637Y-5166377D01*
G01X5937790Y-5173997D01*
G01X5936943Y-5177383D01*
G01X5935673Y-5181617D01*
G01X5933980Y-5185850D01*
G01X5932287Y-5189237D01*
G01X5930593Y-5192200D01*
G01X5928053Y-5196010D01*
G01X5925513Y-5199397D01*
G01X5921280Y-5203630D01*
G01X5918740Y-5205747D01*
G01X5915353Y-5207863D01*
G01X5911543Y-5209980D01*
G01X5907733Y-5211673D01*
G01X5903500Y-5212943D01*
G37*
G36*
G01X6038967Y-5211250D02*
G01X6036427Y-5212943D01*
G01X6033040Y-5214213D01*
G01X6029230Y-5215483D01*
G01X6024997Y-5215907D01*
G01X6021610Y-5215483D01*
G01X6017800Y-5214637D01*
G01X6013143Y-5212943D01*
G01X6009757Y-5210827D01*
G01X6007217Y-5207863D01*
G01X6005100Y-5204053D01*
G01X6003830Y-5199397D01*
G01X6002983Y-5194317D01*
G01X6002983Y-5190930D01*
G01X6003830Y-5187120D01*
G01X6005523Y-5182463D01*
G01X6007640Y-5179077D01*
G01X6010603Y-5176537D01*
G01X6014837Y-5174420D01*
G01X6019070Y-5173150D01*
G01X6023303Y-5172303D01*
G01X6026690Y-5172303D01*
G01X6029653Y-5172727D01*
G01X6033040Y-5173573D01*
G01X6036003Y-5174843D01*
G01X6039390Y-5176960D01*
G01X6042353Y-5180770D01*
G01X6044047Y-5184157D01*
G01X6045317Y-5188390D01*
G01X6046163Y-5193470D01*
G01X6046163Y-5196857D01*
G01X6045740Y-5199820D01*
G01X6044893Y-5203207D01*
G01X6043200Y-5206593D01*
G01X6041083Y-5209133D01*
G01X6038967Y-5211250D01*
G37*
G36*
G01X6194330Y-5091023D02*
G01X6194753Y-5079170D01*
G01X6194753Y-5068587D01*
G01X6215920Y-5068587D01*
G01X6215920Y-5213367D01*
G01X6194753Y-5213367D01*
G01X6194753Y-5166800D01*
G01X6194330Y-5118963D01*
G01X6193483Y-5109650D01*
G01X6192213Y-5105840D01*
G01X6190520Y-5101183D01*
G01X6188827Y-5098220D01*
G01X6187133Y-5096103D01*
G01X6184170Y-5093140D01*
G01X6181207Y-5090600D01*
G01X6178667Y-5088907D01*
G01X6174433Y-5087213D01*
G01X6168930Y-5085943D01*
G01X6162157Y-5085520D01*
G01X6157077Y-5085943D01*
G01X6154113Y-5086790D01*
G01X6150303Y-5088483D01*
G01X6146917Y-5090600D01*
G01X6142683Y-5094833D01*
G01X6140567Y-5097373D01*
G01X6138873Y-5100337D01*
G01X6137180Y-5104147D01*
G01X6135910Y-5108803D01*
G01X6135063Y-5113037D01*
G01X6134640Y-5117693D01*
G01X6134217Y-5121503D01*
G01X6133793Y-5168070D01*
G01X6133793Y-5213367D01*
G01X6112627Y-5213367D01*
G01X6112627Y-5162143D01*
G01X6113050Y-5109650D01*
G01X6113897Y-5103723D01*
G01X6115167Y-5099490D01*
G01X6116860Y-5093987D01*
G01X6118553Y-5090177D01*
G01X6120247Y-5086790D01*
G01X6121940Y-5083827D01*
G01X6124057Y-5080863D01*
G01X6126597Y-5077900D01*
G01X6128713Y-5075783D01*
G01X6131253Y-5073667D01*
G01X6134640Y-5071550D01*
G01X6138027Y-5069857D01*
G01X6140990Y-5068587D01*
G01X6143953Y-5067740D01*
G01X6146917Y-5067317D01*
G01X6151150Y-5066470D01*
G01X6157923Y-5066047D01*
G01X6163003Y-5066470D01*
G01X6166813Y-5067317D01*
G01X6170623Y-5068587D01*
G01X6173587Y-5069857D01*
G01X6176973Y-5071550D01*
G01X6179937Y-5073667D01*
G01X6185440Y-5079170D01*
G01X6187133Y-5081287D01*
G01X6189250Y-5084250D01*
G01X6191367Y-5087637D01*
G01X6193060Y-5090600D01*
G01X6193801Y-5091552D01*
G01X6194330Y-5091023D01*
G37*
G36*
G01X6348847Y-5088060D02*
G01X6312440Y-5088060D01*
G01X6312440Y-5193893D01*
G01X6353080Y-5193893D01*
G01X6353080Y-5213367D01*
G01X6254867Y-5213367D01*
G01X6254867Y-5193893D01*
G01X6291273Y-5193893D01*
G01X6291273Y-5068587D01*
G01X6348847Y-5068587D01*
G01X6348847Y-5088060D01*
G37*
G36*
G01X6596920Y-5068587D02*
G01X6618933Y-5068587D01*
G01X6618933Y-5140553D01*
G01X6618510Y-5212943D01*
G01X6607503Y-5213367D01*
G01X6596920Y-5213367D01*
G01X6596920Y-5170187D01*
G01X6596497Y-5125737D01*
G01X6595650Y-5118117D01*
G01X6594803Y-5112190D01*
G01X6593533Y-5108380D01*
G01X6591840Y-5103723D01*
G01X6590147Y-5100337D01*
G01X6588030Y-5096950D01*
G01X6585490Y-5093987D01*
G01X6583373Y-5091870D01*
G01X6580410Y-5089753D01*
G01X6577023Y-5088060D01*
G01X6573213Y-5086790D01*
G01X6569403Y-5085943D01*
G01X6564747Y-5085520D01*
G01X6560090Y-5086367D01*
G01X6557550Y-5087637D01*
G01X6555433Y-5089330D01*
G01X6553317Y-5091447D01*
G01X6551623Y-5093987D01*
G01X6550777Y-5096950D01*
G01X6549930Y-5100337D01*
G01X6549507Y-5104570D01*
G01X6548237Y-5107533D01*
G01X6537230Y-5108380D01*
G01X6527493Y-5108380D01*
G01X6527493Y-5102877D01*
G01X6527917Y-5096103D01*
G01X6528763Y-5092293D01*
G01X6530033Y-5088060D01*
G01X6531727Y-5083827D01*
G01X6533420Y-5080440D01*
G01X6535537Y-5077477D01*
G01X6538077Y-5074513D01*
G01X6540193Y-5072397D01*
G01X6542733Y-5070703D01*
G01X6545697Y-5069433D01*
G01X6549083Y-5068163D01*
G01X6552470Y-5067317D01*
G01X6556703Y-5066470D01*
G01X6562207Y-5066047D01*
G01X6566017Y-5066470D01*
G01X6569403Y-5067317D01*
G01X6573213Y-5068587D01*
G01X6577023Y-5070280D01*
G01X6579987Y-5072397D01*
G01X6584220Y-5075783D01*
G01X6589300Y-5082557D01*
G01X6591417Y-5085943D01*
G01X6593110Y-5089753D01*
G01X6594380Y-5092717D01*
G01X6595650Y-5094833D01*
G01X6596073Y-5095151D01*
G01X6596497Y-5094410D01*
G01X6596920Y-5080863D01*
G01X6596920Y-5068587D01*
G37*
G36*
G01X6748897Y-5213790D02*
G01X6744663Y-5214637D01*
G01X6741277Y-5215060D01*
G01X6738737Y-5215483D01*
G01X6735773Y-5215907D01*
G01X6724343Y-5214637D01*
G01X6720957Y-5213790D01*
G01X6717147Y-5212520D01*
G01X6713337Y-5210827D01*
G01X6709103Y-5208287D01*
G01X6705717Y-5205747D01*
G01X6699367Y-5199397D01*
G01X6697250Y-5196433D01*
G01X6695133Y-5192623D01*
G01X6694287Y-5191142D01*
G01X6693440Y-5190930D01*
G01X6692593Y-5202360D01*
G01X6692593Y-5213367D01*
G01X6671427Y-5213367D01*
G01X6671427Y-5159603D01*
G01X6671521Y-5147327D01*
G01X6692593Y-5147327D01*
G01X6692593Y-5156217D01*
G01X6693017Y-5166377D01*
G01X6693863Y-5173150D01*
G01X6695133Y-5176960D01*
G01X6696827Y-5180770D01*
G01X6698520Y-5183310D01*
G01X6701060Y-5186697D01*
G01X6704023Y-5189237D01*
G01X6706140Y-5190507D01*
G01X6709103Y-5192200D01*
G01X6712913Y-5193893D01*
G01X6712913Y-5193893D01*
G01X6718417Y-5195163D01*
G01X6725190Y-5196010D01*
G01X6729847Y-5196010D01*
G01X6734503Y-5195587D01*
G01X6739160Y-5194740D01*
G01X6742547Y-5193470D01*
G01X6746357Y-5191353D01*
G01X6749320Y-5188390D01*
G01X6751013Y-5186273D01*
G01X6752707Y-5183310D01*
G01X6754400Y-5178653D01*
G01X6755247Y-5171033D01*
G01X6754823Y-5164683D01*
G01X6753553Y-5161297D01*
G01X6751437Y-5158333D01*
G01X6749320Y-5156217D01*
G01X6747203Y-5154523D01*
G01X6741277Y-5151560D01*
G01X6736620Y-5149867D01*
G01X6732387Y-5149020D01*
G01X6729423Y-5148597D01*
G01X6721803Y-5147750D01*
G01X6706563Y-5147327D01*
G01X6692593Y-5147327D01*
G01X6671521Y-5147327D01*
G01X6671850Y-5104570D01*
G01X6672697Y-5100337D01*
G01X6673967Y-5095680D01*
G01X6675660Y-5091447D01*
G01X6677353Y-5088060D01*
G01X6679470Y-5085097D01*
G01X6682010Y-5082133D01*
G01X6686243Y-5077900D01*
G01X6689630Y-5075360D01*
G01X6693863Y-5072820D01*
G01X6697250Y-5071127D01*
G01X6701060Y-5069433D01*
G01X6705717Y-5068163D01*
G01X6709950Y-5067317D01*
G01X6715877Y-5066470D01*
G01X6724343Y-5066047D01*
G01X6730270Y-5066470D01*
G01X6738737Y-5067317D01*
G01X6742123Y-5068163D01*
G01X6745933Y-5069433D01*
G01X6749320Y-5070703D01*
G01X6752283Y-5071973D01*
G01X6755247Y-5073667D01*
G01X6759057Y-5076207D01*
G01X6762443Y-5078747D01*
G01X6764560Y-5080863D01*
G01X6767100Y-5084250D01*
G01X6769640Y-5088060D01*
G01X6771333Y-5091023D01*
G01X6772603Y-5094410D01*
G01X6774297Y-5101183D01*
G01X6775143Y-5105417D01*
G01X6775143Y-5108380D01*
G01X6764137Y-5109227D01*
G01X6753553Y-5109227D01*
G01X6753553Y-5106263D01*
G01X6752707Y-5101607D01*
G01X6751013Y-5097797D01*
G01X6748897Y-5094833D01*
G01X6746780Y-5092717D01*
G01X6743817Y-5090600D01*
G01X6740853Y-5088907D01*
G01X6737890Y-5087637D01*
G01X6734503Y-5086790D01*
G01X6729423Y-5085943D01*
G01X6721380Y-5085520D01*
G01X6715877Y-5085943D01*
G01X6712490Y-5086790D01*
G01X6708680Y-5088060D01*
G01X6705293Y-5089753D01*
G01X6701483Y-5092293D01*
G01X6698520Y-5095680D01*
G01X6696827Y-5098643D01*
G01X6695133Y-5102030D01*
G01X6693863Y-5107110D01*
G01X6693017Y-5113037D01*
G01X6692593Y-5121927D01*
G01X6692593Y-5127853D01*
G01X6708257Y-5127853D01*
G01X6725190Y-5128277D01*
G01X6733657Y-5129123D01*
G01X6742123Y-5130817D01*
G01X6745933Y-5132087D01*
G01X6750167Y-5133780D01*
G01X6753977Y-5135473D01*
G01X6757787Y-5137590D01*
G01X6760750Y-5139707D01*
G01X6764137Y-5142247D01*
G01X6767100Y-5145210D01*
G01X6768793Y-5147327D01*
G01X6770487Y-5149867D01*
G01X6772180Y-5152830D01*
G01X6773873Y-5156640D01*
G01X6775143Y-5160450D01*
G01X6775990Y-5164683D01*
G01X6776837Y-5169763D01*
G01X6777260Y-5175267D01*
G01X6776837Y-5179923D01*
G01X6775990Y-5185850D01*
G01X6774720Y-5190083D01*
G01X6773027Y-5195163D01*
G01X6770910Y-5198973D01*
G01X6768793Y-5201937D01*
G01X6764560Y-5206170D01*
G01X6761597Y-5208710D01*
G01X6757363Y-5210827D01*
G01X6753553Y-5212520D01*
G01X6748897Y-5213790D01*
G37*
G36*
G01X7158683Y-5102877D02*
G01X7156143Y-5104993D01*
G01X7153603Y-5106687D01*
G01X7150217Y-5108380D01*
G01X7142173Y-5109227D01*
G01X7134977Y-5108803D01*
G01X7131590Y-5107533D01*
G01X7128627Y-5105417D01*
G01X7125240Y-5102030D01*
G01X7123547Y-5099490D01*
G01X7121853Y-5095680D01*
G01X7121007Y-5091023D01*
G01X7120583Y-5087637D01*
G01X7120583Y-5084250D01*
G01X7121430Y-5080017D01*
G01X7122700Y-5076630D01*
G01X7124817Y-5073243D01*
G01X7127357Y-5070703D01*
G01X7129473Y-5069433D01*
G01X7132860Y-5067740D01*
G01X7138363Y-5066470D01*
G01X7143867Y-5066047D01*
G01X7147677Y-5066470D01*
G01X7151487Y-5067740D01*
G01X7156143Y-5070280D01*
G01X7159107Y-5073243D01*
G01X7160800Y-5075783D01*
G01X7162493Y-5079593D01*
G01X7163340Y-5084250D01*
G01X7163763Y-5087637D01*
G01X7163763Y-5090177D01*
G01X7163340Y-5093140D01*
G01X7162493Y-5096527D01*
G01X7160800Y-5099913D01*
G01X7158683Y-5102877D01*
G37*
G36*
G01X7156143Y-5211250D02*
G01X7152333Y-5213367D01*
G01X7148523Y-5214637D01*
G01X7145560Y-5215483D01*
G01X7142173Y-5215907D01*
G01X7138363Y-5215483D01*
G01X7134977Y-5214637D01*
G01X7130743Y-5212943D01*
G01X7127357Y-5210827D01*
G01X7124817Y-5207863D01*
G01X7122700Y-5204053D01*
G01X7121430Y-5199397D01*
G01X7120583Y-5194317D01*
G01X7120583Y-5190930D01*
G01X7121007Y-5187967D01*
G01X7121853Y-5184580D01*
G01X7123547Y-5181193D01*
G01X7125663Y-5178653D01*
G01X7127780Y-5176537D01*
G01X7130320Y-5174843D01*
G01X7133707Y-5173573D01*
G01X7137940Y-5172727D01*
G01X7141750Y-5172303D01*
G01X7144290Y-5172303D01*
G01X7147253Y-5172727D01*
G01X7150640Y-5173573D01*
G01X7154450Y-5175267D01*
G01X7157413Y-5177383D01*
G01X7159107Y-5179500D01*
G01X7160800Y-5182040D01*
G01X7162493Y-5186273D01*
G01X7163340Y-5190507D01*
G01X7163763Y-5193470D01*
G01X7163763Y-5196857D01*
G01X7162917Y-5201090D01*
G01X7161223Y-5205323D01*
G01X7159107Y-5208710D01*
G01X7156143Y-5211250D01*
G37*
G36*
G01X7466447Y-5088060D02*
G01X7430040Y-5088060D01*
G01X7430040Y-5193893D01*
G01X7470680Y-5193893D01*
G01X7470680Y-5213367D01*
G01X7372467Y-5213367D01*
G01X7372467Y-5193893D01*
G01X7408873Y-5193893D01*
G01X7408873Y-5068587D01*
G01X7466447Y-5068587D01*
G01X7466447Y-5088060D01*
G37*
G36*
G01X7587097Y-5213790D02*
G01X7582863Y-5214637D01*
G01X7579477Y-5215060D01*
G01X7576937Y-5215483D01*
G01X7573973Y-5215907D01*
G01X7562543Y-5214637D01*
G01X7559157Y-5213790D01*
G01X7555347Y-5212520D01*
G01X7551537Y-5210827D01*
G01X7547303Y-5208287D01*
G01X7543917Y-5205747D01*
G01X7537567Y-5199397D01*
G01X7535450Y-5196433D01*
G01X7533333Y-5192623D01*
G01X7532487Y-5191142D01*
G01X7531640Y-5190930D01*
G01X7530793Y-5202360D01*
G01X7530793Y-5213367D01*
G01X7509627Y-5213367D01*
G01X7509627Y-5159603D01*
G01X7509721Y-5147327D01*
G01X7530793Y-5147327D01*
G01X7530793Y-5156217D01*
G01X7531217Y-5166377D01*
G01X7532063Y-5173150D01*
G01X7533333Y-5176960D01*
G01X7535027Y-5180770D01*
G01X7536720Y-5183310D01*
G01X7539260Y-5186697D01*
G01X7542223Y-5189237D01*
G01X7544340Y-5190507D01*
G01X7547303Y-5192200D01*
G01X7551113Y-5193893D01*
G01X7551113Y-5193893D01*
G01X7556617Y-5195163D01*
G01X7563390Y-5196010D01*
G01X7568047Y-5196010D01*
G01X7572703Y-5195587D01*
G01X7577360Y-5194740D01*
G01X7580747Y-5193470D01*
G01X7584557Y-5191353D01*
G01X7587520Y-5188390D01*
G01X7589213Y-5186273D01*
G01X7590907Y-5183310D01*
G01X7592600Y-5178653D01*
G01X7593447Y-5171033D01*
G01X7593023Y-5164683D01*
G01X7591753Y-5161297D01*
G01X7589637Y-5158333D01*
G01X7587520Y-5156217D01*
G01X7585403Y-5154523D01*
G01X7579477Y-5151560D01*
G01X7574820Y-5149867D01*
G01X7570587Y-5149020D01*
G01X7567623Y-5148597D01*
G01X7560003Y-5147750D01*
G01X7544763Y-5147327D01*
G01X7530793Y-5147327D01*
G01X7509721Y-5147327D01*
G01X7510050Y-5104570D01*
G01X7510897Y-5100337D01*
G01X7512167Y-5095680D01*
G01X7513860Y-5091447D01*
G01X7515553Y-5088060D01*
G01X7517670Y-5085097D01*
G01X7520210Y-5082133D01*
G01X7524443Y-5077900D01*
G01X7527830Y-5075360D01*
G01X7532063Y-5072820D01*
G01X7535450Y-5071127D01*
G01X7539260Y-5069433D01*
G01X7543917Y-5068163D01*
G01X7548150Y-5067317D01*
G01X7554077Y-5066470D01*
G01X7562543Y-5066047D01*
G01X7568470Y-5066470D01*
G01X7576937Y-5067317D01*
G01X7580323Y-5068163D01*
G01X7584133Y-5069433D01*
G01X7587520Y-5070703D01*
G01X7590483Y-5071973D01*
G01X7593447Y-5073667D01*
G01X7597257Y-5076207D01*
G01X7600643Y-5078747D01*
G01X7602760Y-5080863D01*
G01X7605300Y-5084250D01*
G01X7607840Y-5088060D01*
G01X7609533Y-5091023D01*
G01X7610803Y-5094410D01*
G01X7612497Y-5101183D01*
G01X7613343Y-5105417D01*
G01X7613343Y-5108380D01*
G01X7602337Y-5109227D01*
G01X7591753Y-5109227D01*
G01X7591753Y-5106263D01*
G01X7590907Y-5101607D01*
G01X7589213Y-5097797D01*
G01X7587097Y-5094833D01*
G01X7584980Y-5092717D01*
G01X7582017Y-5090600D01*
G01X7579053Y-5088907D01*
G01X7576090Y-5087637D01*
G01X7572703Y-5086790D01*
G01X7567623Y-5085943D01*
G01X7559580Y-5085520D01*
G01X7554077Y-5085943D01*
G01X7550690Y-5086790D01*
G01X7546880Y-5088060D01*
G01X7543493Y-5089753D01*
G01X7539683Y-5092293D01*
G01X7536720Y-5095680D01*
G01X7535027Y-5098643D01*
G01X7533333Y-5102030D01*
G01X7532063Y-5107110D01*
G01X7531217Y-5113037D01*
G01X7530793Y-5121927D01*
G01X7530793Y-5127853D01*
G01X7546457Y-5127853D01*
G01X7563390Y-5128277D01*
G01X7571857Y-5129123D01*
G01X7580323Y-5130817D01*
G01X7584133Y-5132087D01*
G01X7588367Y-5133780D01*
G01X7592177Y-5135473D01*
G01X7595987Y-5137590D01*
G01X7598950Y-5139707D01*
G01X7602337Y-5142247D01*
G01X7605300Y-5145210D01*
G01X7606993Y-5147327D01*
G01X7608687Y-5149867D01*
G01X7610380Y-5152830D01*
G01X7612073Y-5156640D01*
G01X7613343Y-5160450D01*
G01X7614190Y-5164683D01*
G01X7615037Y-5169763D01*
G01X7615460Y-5175267D01*
G01X7615037Y-5179923D01*
G01X7614190Y-5185850D01*
G01X7612920Y-5190083D01*
G01X7611227Y-5195163D01*
G01X7609110Y-5198973D01*
G01X7606993Y-5201937D01*
G01X7602760Y-5206170D01*
G01X7599797Y-5208710D01*
G01X7595563Y-5210827D01*
G01X7591753Y-5212520D01*
G01X7587097Y-5213790D01*
G37*
G36*
G01X7735475Y-5077371D02*
G01X7735687Y-5073667D01*
G01X7735687Y-5068587D01*
G01X7757700Y-5068587D01*
G01X7757700Y-5213367D01*
G01X7735687Y-5213367D01*
G01X7735687Y-5155370D01*
G01X7735263Y-5096103D01*
G01X7733993Y-5092717D01*
G01X7731453Y-5088907D01*
G01X7727643Y-5086367D01*
G01X7722987Y-5085520D01*
G01X7718753Y-5086790D01*
G01X7716213Y-5088907D01*
G01X7714520Y-5091447D01*
G01X7712827Y-5095680D01*
G01X7711980Y-5155793D01*
G01X7711980Y-5213367D01*
G01X7689967Y-5213367D01*
G01X7689967Y-5154947D01*
G01X7689543Y-5095257D01*
G01X7688273Y-5091870D01*
G01X7686157Y-5088907D01*
G01X7683617Y-5087213D01*
G01X7680230Y-5085943D01*
G01X7675573Y-5085943D01*
G01X7672187Y-5087637D01*
G01X7670070Y-5089753D01*
G01X7668377Y-5092293D01*
G01X7667530Y-5095257D01*
G01X7666683Y-5098643D01*
G01X7666260Y-5157063D01*
G01X7666260Y-5213367D01*
G01X7644247Y-5213367D01*
G01X7644247Y-5157910D01*
G01X7644670Y-5101183D01*
G01X7645517Y-5091870D01*
G01X7646363Y-5088060D01*
G01X7647633Y-5083827D01*
G01X7648903Y-5080440D01*
G01X7650597Y-5077053D01*
G01X7652713Y-5074090D01*
G01X7654830Y-5071973D01*
G01X7657793Y-5069857D01*
G01X7662027Y-5067740D01*
G01X7667530Y-5066470D01*
G01X7672187Y-5066047D01*
G01X7675150Y-5066470D01*
G01X7678537Y-5067740D01*
G01X7681500Y-5069433D01*
G01X7683617Y-5071127D01*
G01X7686157Y-5074090D01*
G01X7688273Y-5077477D01*
G01X7689967Y-5080863D01*
G01X7691660Y-5083827D01*
G01X7692507Y-5084038D01*
G01X7693353Y-5082980D01*
G01X7695047Y-5079170D01*
G01X7697587Y-5074937D01*
G01X7700550Y-5071973D01*
G01X7702667Y-5070280D01*
G01X7705630Y-5068587D01*
G01X7709017Y-5067317D01*
G01X7712403Y-5066470D01*
G01X7717060Y-5066047D01*
G01X7720870Y-5066470D01*
G01X7724257Y-5067740D01*
G01X7727220Y-5069433D01*
G01X7729337Y-5071127D01*
G01X7731453Y-5073667D01*
G01X7733147Y-5076630D01*
G01X7734840Y-5078323D01*
G01X7735475Y-5077371D01*
G37*
G36*
G01X4221173Y-5037260D02*
G01X4218633Y-5039800D01*
G01X4215670Y-5041493D01*
G01X4213553Y-5042763D01*
G01X4206780Y-5043187D01*
G01X4199583Y-5042340D01*
G01X4196620Y-5040647D01*
G01X4194080Y-5038530D01*
G01X4192387Y-5035990D01*
G01X4190693Y-5032180D01*
G01X4189847Y-5025407D01*
G01X4190693Y-5019480D01*
G01X4192387Y-5016093D01*
G01X4194503Y-5013553D01*
G01X4196620Y-5011860D01*
G01X4200007Y-5010167D01*
G01X4205510Y-5008897D01*
G01X4209743Y-5008897D01*
G01X4213130Y-5009743D01*
G01X4216940Y-5011437D01*
G01X4219480Y-5013553D01*
G01X4221597Y-5016517D01*
G01X4223290Y-5020750D01*
G01X4224137Y-5024983D01*
G01X4224137Y-5030063D01*
G01X4222867Y-5034297D01*
G01X4221173Y-5037260D01*
G37*
G36*
G01X4780397Y-5233263D02*
G01X4775317Y-5234110D01*
G01X4770660Y-5234533D01*
G01X4767697Y-5234957D01*
G01X4746530Y-5235380D01*
G01X4725787Y-5235380D01*
G01X4725363Y-5233263D01*
G01X4724940Y-5223527D01*
G01X4724940Y-5215907D01*
G01X4746530Y-5215907D01*
G01X4769390Y-5215483D01*
G01X4776163Y-5214637D01*
G01X4779550Y-5213367D01*
G01X4782937Y-5211673D01*
G01X4785477Y-5209980D01*
G01X4789710Y-5205747D01*
G01X4791403Y-5203630D01*
G01X4794367Y-5197703D01*
G01X4796060Y-5192623D01*
G01X4796907Y-5187543D01*
G01X4797330Y-5184157D01*
G01X4797753Y-5116847D01*
G01X4797330Y-5049537D01*
G01X4796907Y-5046573D01*
G01X4796060Y-5043187D01*
G01X4794790Y-5039800D01*
G01X4793097Y-5035990D01*
G01X4790980Y-5032603D01*
G01X4788440Y-5029640D01*
G01X4785477Y-5027100D01*
G01X4782937Y-5025407D01*
G01X4779127Y-5023713D01*
G01X4774470Y-5022443D01*
G01X4770660Y-5022020D01*
G01X4767697Y-5021597D01*
G01X4764310Y-5021597D01*
G01X4760500Y-5022020D01*
G01X4757113Y-5022867D01*
G01X4753727Y-5024137D01*
G01X4749917Y-5026253D01*
G01X4746107Y-5030063D01*
G01X4743567Y-5033027D01*
G01X4741873Y-5035990D01*
G01X4740180Y-5039377D01*
G01X4738910Y-5042763D01*
G01X4738063Y-5046150D01*
G01X4737217Y-5052077D01*
G01X4736793Y-5056310D01*
G01X4736793Y-5059273D01*
G01X4743567Y-5059273D01*
G01X4751610Y-5059697D01*
G01X4755420Y-5060543D01*
G01X4759653Y-5061813D01*
G01X4763463Y-5063930D01*
G01X4767697Y-5066893D01*
G01X4770660Y-5070280D01*
G01X4772777Y-5073667D01*
G01X4774893Y-5077477D01*
G01X4776587Y-5082133D01*
G01X4777857Y-5087637D01*
G01X4778280Y-5092717D01*
G01X4778703Y-5096103D01*
G01X4779127Y-5125313D01*
G01X4778703Y-5154523D01*
G01X4777857Y-5162990D01*
G01X4776587Y-5166800D01*
G01X4774893Y-5171457D01*
G01X4772777Y-5175267D01*
G01X4770660Y-5178230D01*
G01X4766427Y-5182463D01*
G01X4763887Y-5184157D01*
G01X4761347Y-5185427D01*
G01X4758383Y-5186697D01*
G01X4751610Y-5188390D01*
G01X4744413Y-5188813D01*
G01X4738063Y-5188390D01*
G01X4734253Y-5187120D01*
G01X4729597Y-5184580D01*
G01X4726210Y-5182040D01*
G01X4724517Y-5179923D01*
G01X4723247Y-5177807D01*
G01X4721130Y-5174843D01*
G01X4719013Y-5170187D01*
G01X4717743Y-5166377D01*
G01X4716897Y-5162990D01*
G01X4716050Y-5158757D01*
G01X4715627Y-5102453D01*
G01X4715808Y-5078747D01*
G01X4736793Y-5078747D01*
G01X4736793Y-5118117D01*
G01X4737217Y-5158757D01*
G01X4738063Y-5162143D01*
G01X4739757Y-5165953D01*
G01X4739757Y-5165953D01*
G01X4742297Y-5168493D01*
G01X4745260Y-5169763D01*
G01X4747377Y-5169763D01*
G01X4749493Y-5168917D01*
G01X4752033Y-5167223D01*
G01X4753727Y-5165107D01*
G01X4755420Y-5162143D01*
G01X4756690Y-5157063D01*
G01X4757113Y-5152407D01*
G01X4757537Y-5149443D01*
G01X4757960Y-5122773D01*
G01X4757537Y-5096103D01*
G01X4757113Y-5091870D01*
G01X4756267Y-5087213D01*
G01X4754573Y-5083827D01*
G01X4752457Y-5081287D01*
G01X4749917Y-5079593D01*
G01X4742720Y-5078747D01*
G01X4736793Y-5078747D01*
G01X4715808Y-5078747D01*
G01X4716050Y-5046997D01*
G01X4716897Y-5041070D01*
G01X4717743Y-5037683D01*
G01X4719013Y-5033873D01*
G01X4720707Y-5029640D01*
G01X4722400Y-5026253D01*
G01X4726633Y-5019903D01*
G01X4733830Y-5012707D01*
G01X4736793Y-5010590D01*
G01X4740603Y-5008473D01*
G01X4743990Y-5006780D01*
G01X4748223Y-5005087D01*
G01X4753303Y-5003817D01*
G01X4757537Y-5002970D01*
G01X4762617Y-5002547D01*
G01X4766850Y-5002123D01*
G01X4769390Y-5002123D01*
G01X4778703Y-5002970D01*
G01X4782513Y-5003817D01*
G01X4786747Y-5005087D01*
G01X4790133Y-5006357D01*
G01X4793097Y-5007627D01*
G01X4796483Y-5009743D01*
G01X4800717Y-5012707D01*
G01X4805797Y-5017787D01*
G01X4807913Y-5020327D01*
G01X4809607Y-5022867D01*
G01X4811300Y-5025830D01*
G01X4812993Y-5029217D01*
G01X4814687Y-5033027D01*
G01X4815957Y-5036837D01*
G01X4817227Y-5041070D01*
G01X4818073Y-5046150D01*
G01X4818497Y-5049537D01*
G01X4818920Y-5119810D01*
G01X4818497Y-5190083D01*
G01X4817650Y-5194740D01*
G01X4816380Y-5199820D01*
G01X4815110Y-5203630D01*
G01X4813840Y-5207017D01*
G01X4812147Y-5210403D01*
G01X4810453Y-5213367D01*
G01X4808337Y-5216330D01*
G01X4805797Y-5219293D01*
G01X4801563Y-5223527D01*
G01X4798600Y-5225643D01*
G01X4794790Y-5228183D01*
G01X4790557Y-5230300D01*
G01X4785900Y-5231993D01*
G01X4780397Y-5233263D01*
G37*
G36*
G01X4923060Y-5213790D02*
G01X4918403Y-5214637D01*
G01X4914593Y-5215060D01*
G01X4911630Y-5215483D01*
G01X4906973Y-5215907D01*
G01X4901470Y-5215483D01*
G01X4893850Y-5214637D01*
G01X4886230Y-5212943D01*
G01X4882843Y-5211673D01*
G01X4878610Y-5209980D01*
G01X4875647Y-5208287D01*
G01X4872683Y-5206170D01*
G01X4869720Y-5203630D01*
G01X4867180Y-5201513D01*
G01X4864640Y-5198973D01*
G01X4862523Y-5196433D01*
G01X4860407Y-5193470D01*
G01X4857020Y-5187543D01*
G01X4855327Y-5183733D01*
G01X4853633Y-5179077D01*
G01X4852363Y-5173997D01*
G01X4851517Y-5168917D01*
G01X4851093Y-5163413D01*
G01X4850670Y-5160027D01*
G01X4850670Y-5157910D01*
G01X4851517Y-5148597D01*
G01X4852363Y-5144787D01*
G01X4853633Y-5140553D01*
G01X4854903Y-5136743D01*
G01X4856173Y-5133357D01*
G01X4857867Y-5130393D01*
G01X4859983Y-5127007D01*
G01X4862100Y-5124043D01*
G01X4864640Y-5121080D01*
G01X4867603Y-5118540D01*
G01X4869720Y-5116423D01*
G01X4872260Y-5114307D01*
G01X4874800Y-5112613D01*
G01X4877763Y-5110497D01*
G01X4881573Y-5108380D01*
G01X4882843Y-5106687D01*
G01X4880303Y-5104993D01*
G01X4877340Y-5102877D01*
G01X4875223Y-5101183D01*
G01X4873107Y-5099913D01*
G01X4870990Y-5098220D01*
G01X4867603Y-5093987D01*
G01X4865063Y-5091023D01*
G01X4862947Y-5087637D01*
G01X4859560Y-5080863D01*
G01X4858290Y-5077053D01*
G01X4857020Y-5072820D01*
G01X4856173Y-5069010D01*
G01X4855750Y-5065623D01*
G01X4855327Y-5057157D01*
G01X4855750Y-5048690D01*
G01X4856597Y-5044457D01*
G01X4857867Y-5039800D01*
G01X4860407Y-5033027D01*
G01X4862523Y-5029217D01*
G01X4864640Y-5025830D01*
G01X4867180Y-5022443D01*
G01X4872260Y-5017363D01*
G01X4874800Y-5015247D01*
G01X4878187Y-5013130D01*
G01X4882420Y-5011013D01*
G01X4886653Y-5009320D01*
G01X4891310Y-5008050D01*
G01X4895543Y-5007203D01*
G01X4900623Y-5006357D01*
G01X4908667Y-5005933D01*
G01X4914170Y-5006357D01*
G01X4920097Y-5007203D01*
G01X4924330Y-5008473D01*
G01X4929410Y-5010167D01*
G01X4933643Y-5012283D01*
G01X4937030Y-5014400D01*
G01X4940417Y-5016940D01*
G01X4945497Y-5022020D01*
G01X4947190Y-5024137D01*
G01X4948883Y-5027100D01*
G01X4951000Y-5030910D01*
G01X4952693Y-5034720D01*
G01X4955233Y-5042340D01*
G01X4956080Y-5046150D01*
G01X4956503Y-5049537D01*
G01X4956927Y-5053770D01*
G01X4956927Y-5056733D01*
G01X4946343Y-5056733D01*
G01X4938406Y-5056310D01*
G01X4935760Y-5055040D01*
G01X4934490Y-5046150D01*
G01X4933220Y-5042763D01*
G01X4931527Y-5038953D01*
G01X4928987Y-5035143D01*
G01X4926023Y-5032180D01*
G01X4923907Y-5030487D01*
G01X4920943Y-5028793D01*
G01X4917557Y-5027523D01*
G01X4913323Y-5026253D01*
G01X4906127Y-5025407D01*
G01X4900623Y-5025830D01*
G01X4897237Y-5026677D01*
G01X4893003Y-5028370D01*
G01X4889193Y-5030487D01*
G01X4886653Y-5032603D01*
G01X4884537Y-5034720D01*
G01X4882843Y-5036837D01*
G01X4879880Y-5042763D01*
G01X4878610Y-5046997D01*
G01X4877763Y-5051230D01*
G01X4877340Y-5055040D01*
G01X4876917Y-5058003D01*
G01X4876493Y-5061390D01*
G01X4877763Y-5071550D01*
G01X4879033Y-5075360D01*
G01X4880727Y-5079170D01*
G01X4882420Y-5082133D01*
G01X4884960Y-5085943D01*
G01X4887923Y-5088907D01*
G01X4890887Y-5091023D01*
G01X4894273Y-5093140D01*
G01X4897660Y-5094833D01*
G01X4902317Y-5096103D01*
G01X4907397Y-5096950D01*
G01X4913323Y-5097373D01*
G01X4917133Y-5097373D01*
G01X4917133Y-5107110D01*
G01X4916710Y-5114412D01*
G01X4915440Y-5116847D01*
G01X4912477Y-5117270D01*
G01X4902317Y-5118117D01*
G01X4898930Y-5118963D01*
G01X4895543Y-5120233D01*
G01X4892157Y-5121927D01*
G01X4887923Y-5124467D01*
G01X4882843Y-5129547D01*
G01X4880303Y-5132510D01*
G01X4878187Y-5135897D01*
G01X4876493Y-5139283D01*
G01X4875223Y-5142670D01*
G01X4873953Y-5146480D01*
G01X4873107Y-5150713D01*
G01X4872683Y-5153677D01*
G01X4872260Y-5160450D01*
G01X4872683Y-5167223D01*
G01X4873530Y-5171457D01*
G01X4874800Y-5175690D01*
G01X4876070Y-5178653D01*
G01X4877340Y-5181193D01*
G01X4879457Y-5184157D01*
G01X4881997Y-5187120D01*
G01X4884113Y-5189237D01*
G01X4886653Y-5190930D01*
G01X4889193Y-5192200D01*
G01X4892157Y-5193470D01*
G01X4898930Y-5195163D01*
G01X4904857Y-5196010D01*
G01X4910783Y-5196010D01*
G01X4914593Y-5195587D01*
G01X4917557Y-5195163D01*
G01X4920943Y-5193893D01*
G01X4924753Y-5192200D01*
G01X4928563Y-5189660D01*
G01X4933643Y-5184580D01*
G01X4935337Y-5182040D01*
G01X4936607Y-5179077D01*
G01X4937877Y-5175690D01*
G01X4938723Y-5172303D01*
G01X4939570Y-5168070D01*
G01X4940840Y-5164260D01*
G01X4951423Y-5163413D01*
G01X4958832Y-5163731D01*
G01X4961583Y-5164683D01*
G01X4961583Y-5167223D01*
G01X4960737Y-5174843D01*
G01X4959890Y-5178653D01*
G01X4958620Y-5182887D01*
G01X4957350Y-5186273D01*
G01X4956080Y-5189237D01*
G01X4953963Y-5192623D01*
G01X4951000Y-5196857D01*
G01X4945920Y-5201937D01*
G01X4942957Y-5204477D01*
G01X4939993Y-5206593D01*
G01X4937453Y-5208287D01*
G01X4934490Y-5209980D01*
G01X4931527Y-5211250D01*
G01X4928140Y-5212520D01*
G01X4923060Y-5213790D01*
G37*
G36*
G01X5100013Y-5138437D02*
G01X5100860Y-5149867D01*
G01X5100860Y-5159180D01*
G01X5033973Y-5159180D01*
G01X5033973Y-5213367D01*
G01X5012807Y-5213367D01*
G01X5012807Y-5159180D01*
G01X4995027Y-5159180D01*
G01X4995027Y-5139707D01*
G01X5012807Y-5139707D01*
G01X5012807Y-5089753D01*
G01X5033973Y-5089753D01*
G01X5033973Y-5139707D01*
G01X5077153Y-5139707D01*
G01X5076730Y-5138013D01*
G01X5075460Y-5135050D01*
G01X5017887Y-5019903D01*
G01X5015347Y-5013977D01*
G01X5013653Y-5010590D01*
G01X5012807Y-5008473D01*
G01X5035667Y-5008473D01*
G01X5036513Y-5010590D01*
G01X5038207Y-5013977D01*
G01X5040747Y-5019903D01*
G01X5100013Y-5138437D01*
G37*
G36*
G01X5775230Y-5091023D02*
G01X5775653Y-5049113D01*
G01X5775653Y-5008473D01*
G01X5796820Y-5008473D01*
G01X5796820Y-5213367D01*
G01X5775653Y-5213367D01*
G01X5775653Y-5166800D01*
G01X5775230Y-5118963D01*
G01X5774383Y-5109650D01*
G01X5773113Y-5105840D01*
G01X5771420Y-5101183D01*
G01X5769727Y-5098220D01*
G01X5768033Y-5096103D01*
G01X5765070Y-5093140D01*
G01X5762107Y-5090600D01*
G01X5759567Y-5088907D01*
G01X5755333Y-5087213D01*
G01X5749830Y-5085943D01*
G01X5743057Y-5085520D01*
G01X5737977Y-5085943D01*
G01X5735013Y-5086790D01*
G01X5731203Y-5088483D01*
G01X5727817Y-5090600D01*
G01X5723583Y-5094833D01*
G01X5721467Y-5097373D01*
G01X5719773Y-5100337D01*
G01X5718080Y-5104147D01*
G01X5716810Y-5108803D01*
G01X5715963Y-5113037D01*
G01X5715540Y-5117693D01*
G01X5715117Y-5121503D01*
G01X5714693Y-5168070D01*
G01X5714693Y-5213367D01*
G01X5693527Y-5213367D01*
G01X5693527Y-5162143D01*
G01X5693950Y-5109650D01*
G01X5694797Y-5103723D01*
G01X5696067Y-5099490D01*
G01X5697760Y-5093987D01*
G01X5699453Y-5090177D01*
G01X5701147Y-5086790D01*
G01X5702840Y-5083827D01*
G01X5704957Y-5080863D01*
G01X5707497Y-5077900D01*
G01X5709613Y-5075783D01*
G01X5712153Y-5073667D01*
G01X5715540Y-5071550D01*
G01X5718927Y-5069857D01*
G01X5721890Y-5068587D01*
G01X5724853Y-5067740D01*
G01X5727817Y-5067317D01*
G01X5732050Y-5066470D01*
G01X5738823Y-5066047D01*
G01X5743903Y-5066470D01*
G01X5747713Y-5067317D01*
G01X5751523Y-5068587D01*
G01X5754487Y-5069857D01*
G01X5757873Y-5071550D01*
G01X5760837Y-5073667D01*
G01X5766340Y-5079170D01*
G01X5768033Y-5081287D01*
G01X5770150Y-5084250D01*
G01X5772267Y-5087637D01*
G01X5773960Y-5090600D01*
G01X5774701Y-5091552D01*
G01X5775230Y-5091023D01*
G37*
G36*
G01X6316673Y-5037260D02*
G01X6314133Y-5039800D01*
G01X6311170Y-5041493D01*
G01X6309053Y-5042763D01*
G01X6302280Y-5043187D01*
G01X6295083Y-5042340D01*
G01X6292120Y-5040647D01*
G01X6289580Y-5038530D01*
G01X6287887Y-5035990D01*
G01X6286193Y-5032180D01*
G01X6285347Y-5025407D01*
G01X6286193Y-5019480D01*
G01X6287887Y-5016093D01*
G01X6290003Y-5013553D01*
G01X6292120Y-5011860D01*
G01X6295507Y-5010167D01*
G01X6301010Y-5008897D01*
G01X6305243Y-5008897D01*
G01X6308630Y-5009743D01*
G01X6312440Y-5011437D01*
G01X6314980Y-5013553D01*
G01X6317097Y-5016517D01*
G01X6318790Y-5020750D01*
G01X6319637Y-5024983D01*
G01X6319637Y-5030063D01*
G01X6318367Y-5034297D01*
G01X6316673Y-5037260D01*
G37*
G36*
G01X6473730Y-5091023D02*
G01X6474153Y-5049113D01*
G01X6474153Y-5008473D01*
G01X6495320Y-5008473D01*
G01X6495320Y-5213367D01*
G01X6474153Y-5213367D01*
G01X6474153Y-5166800D01*
G01X6473730Y-5118963D01*
G01X6472883Y-5109650D01*
G01X6471613Y-5105840D01*
G01X6469920Y-5101183D01*
G01X6468227Y-5098220D01*
G01X6466533Y-5096103D01*
G01X6463570Y-5093140D01*
G01X6460607Y-5090600D01*
G01X6458067Y-5088907D01*
G01X6453833Y-5087213D01*
G01X6448330Y-5085943D01*
G01X6441557Y-5085520D01*
G01X6436477Y-5085943D01*
G01X6433513Y-5086790D01*
G01X6429703Y-5088483D01*
G01X6426317Y-5090600D01*
G01X6422083Y-5094833D01*
G01X6419967Y-5097373D01*
G01X6418273Y-5100337D01*
G01X6416580Y-5104147D01*
G01X6415310Y-5108803D01*
G01X6414463Y-5113037D01*
G01X6414040Y-5117693D01*
G01X6413617Y-5121503D01*
G01X6413193Y-5168070D01*
G01X6413193Y-5213367D01*
G01X6392027Y-5213367D01*
G01X6392027Y-5162143D01*
G01X6392450Y-5109650D01*
G01X6393297Y-5103723D01*
G01X6394567Y-5099490D01*
G01X6396260Y-5093987D01*
G01X6397953Y-5090177D01*
G01X6399647Y-5086790D01*
G01X6401340Y-5083827D01*
G01X6403457Y-5080863D01*
G01X6405997Y-5077900D01*
G01X6408113Y-5075783D01*
G01X6410653Y-5073667D01*
G01X6414040Y-5071550D01*
G01X6417427Y-5069857D01*
G01X6420390Y-5068587D01*
G01X6423353Y-5067740D01*
G01X6426317Y-5067317D01*
G01X6430550Y-5066470D01*
G01X6437323Y-5066047D01*
G01X6442403Y-5066470D01*
G01X6446213Y-5067317D01*
G01X6450023Y-5068587D01*
G01X6452987Y-5069857D01*
G01X6456373Y-5071550D01*
G01X6459337Y-5073667D01*
G01X6464840Y-5079170D01*
G01X6466533Y-5081287D01*
G01X6468650Y-5084250D01*
G01X6470767Y-5087637D01*
G01X6472460Y-5090600D01*
G01X6473201Y-5091552D01*
G01X6473730Y-5091023D01*
G37*
G36*
G01X6887327Y-5132933D02*
G01X6889020Y-5133780D01*
G01X6889020Y-5008473D01*
G01X6910187Y-5008473D01*
G01X6910187Y-5213367D01*
G01X6889020Y-5213367D01*
G01X6889020Y-5190930D01*
G01X6888703Y-5173891D01*
G01X6887750Y-5167647D01*
G01X6877590Y-5154947D01*
G01X6875897Y-5153253D01*
G01X6874203Y-5152830D01*
G01X6872510Y-5154523D01*
G01X6870817Y-5157487D01*
G01X6863197Y-5168917D01*
G01X6860657Y-5173150D01*
G01X6835257Y-5211250D01*
G01X6833987Y-5213367D01*
G01X6809433Y-5213367D01*
G01X6810280Y-5211250D01*
G01X6811973Y-5208287D01*
G01X6814090Y-5205323D01*
G01X6839490Y-5167223D01*
G01X6843723Y-5160450D01*
G01X6858963Y-5137590D01*
G01X6860657Y-5134627D01*
G01X6859387Y-5131663D01*
G01X6856847Y-5128277D01*
G01X6846687Y-5115577D01*
G01X6844147Y-5112190D01*
G01X6833987Y-5099490D01*
G01X6831447Y-5096103D01*
G01X6821287Y-5083403D01*
G01X6818747Y-5080017D01*
G01X6811973Y-5071550D01*
G01X6810280Y-5069010D01*
G01X6822980Y-5068587D01*
G01X6835680Y-5068587D01*
G01X6836950Y-5070703D01*
G01X6839490Y-5073667D01*
G01X6847957Y-5084250D01*
G01X6849227Y-5086367D01*
G01X6861080Y-5101183D01*
G01X6863620Y-5104570D01*
G01X6873780Y-5117270D01*
G01X6876320Y-5120657D01*
G01X6884787Y-5131240D01*
G01X6887327Y-5132933D01*
G37*
G36*
G01X7326747Y-5027947D02*
G01X7290340Y-5027947D01*
G01X7290340Y-5193893D01*
G01X7330980Y-5193893D01*
G01X7330980Y-5213367D01*
G01X7232767Y-5213367D01*
G01X7232767Y-5193893D01*
G01X7269173Y-5193893D01*
G01X7269173Y-5008473D01*
G01X7326747Y-5008473D01*
G01X7326747Y-5027947D01*
G37*
G36*
G01X7434273Y-5037260D02*
G01X7431733Y-5039800D01*
G01X7428770Y-5041493D01*
G01X7426653Y-5042763D01*
G01X7419880Y-5043187D01*
G01X7412683Y-5042340D01*
G01X7409720Y-5040647D01*
G01X7407180Y-5038530D01*
G01X7405487Y-5035990D01*
G01X7403793Y-5032180D01*
G01X7402947Y-5025407D01*
G01X7403793Y-5019480D01*
G01X7405487Y-5016093D01*
G01X7407603Y-5013553D01*
G01X7409720Y-5011860D01*
G01X7413107Y-5010167D01*
G01X7418610Y-5008897D01*
G01X7422843Y-5008897D01*
G01X7426230Y-5009743D01*
G01X7430040Y-5011437D01*
G01X7432580Y-5013553D01*
G01X7434697Y-5016517D01*
G01X7436390Y-5020750D01*
G01X7437237Y-5024983D01*
G01X7437237Y-5030063D01*
G01X7435967Y-5034297D01*
G01X7434273Y-5037260D01*
G37*
G04 Text End*
G54D10*

M02*

